<mxfile host="app.diagrams.net" modified="2023-04-27T06:42:30.424Z" agent="Mozilla/5.0 (Windows NT 10.0; Win64; x64) AppleWebKit/537.36 (KHTML, like Gecko) Chrome/112.0.0.0 Safari/537.36" etag="ijunYas-WEBSBKN-jxF3" version="21.2.0" type="device">
  <diagram id="C5RBs43oDa-KdzZeNtuy" name="Page-1">
    <mxGraphModel dx="1434" dy="739" grid="1" gridSize="10" guides="1" tooltips="1" connect="1" arrows="1" fold="1" page="1" pageScale="1" pageWidth="827" pageHeight="1169" math="0" shadow="0">
      <root>
        <mxCell id="WIyWlLk6GJQsqaUBKTNV-0" />
        <mxCell id="WIyWlLk6GJQsqaUBKTNV-1" parent="WIyWlLk6GJQsqaUBKTNV-0" />
        <mxCell id="X7Wm0wWlR6N1wWY1FZSC-55" value="" style="rounded=1;whiteSpace=wrap;html=1;fillColor=none;arcSize=5;" parent="WIyWlLk6GJQsqaUBKTNV-1" vertex="1">
          <mxGeometry x="910" y="760" width="420" height="230" as="geometry" />
        </mxCell>
        <mxCell id="X7Wm0wWlR6N1wWY1FZSC-54" value="" style="rounded=1;whiteSpace=wrap;html=1;fillColor=none;arcSize=5;" parent="WIyWlLk6GJQsqaUBKTNV-1" vertex="1">
          <mxGeometry x="470" y="1190" width="420" height="190" as="geometry" />
        </mxCell>
        <mxCell id="X7Wm0wWlR6N1wWY1FZSC-53" value="" style="rounded=1;whiteSpace=wrap;html=1;fillColor=none;arcSize=5;" parent="WIyWlLk6GJQsqaUBKTNV-1" vertex="1">
          <mxGeometry x="470" y="760" width="420" height="420" as="geometry" />
        </mxCell>
        <mxCell id="X7Wm0wWlR6N1wWY1FZSC-52" value="" style="rounded=1;whiteSpace=wrap;html=1;fillColor=none;arcSize=5;" parent="WIyWlLk6GJQsqaUBKTNV-1" vertex="1">
          <mxGeometry x="30" y="760" width="420" height="480" as="geometry" />
        </mxCell>
        <mxCell id="X7Wm0wWlR6N1wWY1FZSC-48" value="" style="rounded=1;whiteSpace=wrap;html=1;fillColor=none;" parent="WIyWlLk6GJQsqaUBKTNV-1" vertex="1">
          <mxGeometry x="40" y="145" width="140" height="260" as="geometry" />
        </mxCell>
        <mxCell id="zkfFHV4jXpPFQw0GAbJ--0" value="Route" style="swimlane;fontStyle=2;align=center;verticalAlign=top;childLayout=stackLayout;horizontal=1;startSize=26;horizontalStack=0;resizeParent=1;resizeLast=0;collapsible=1;marginBottom=0;rounded=0;shadow=0;strokeWidth=1;fillColor=#f8cecc;strokeColor=#b85450;" parent="WIyWlLk6GJQsqaUBKTNV-1" vertex="1">
          <mxGeometry x="540" y="260" width="160" height="70" as="geometry">
            <mxRectangle x="220" y="120" width="160" height="26" as="alternateBounds" />
          </mxGeometry>
        </mxCell>
        <mxCell id="zkfFHV4jXpPFQw0GAbJ--3" value="nodeList (ArrayLlist&lt;Node&gt;)" style="text;align=left;verticalAlign=top;spacingLeft=4;spacingRight=4;overflow=hidden;rotatable=0;points=[[0,0.5],[1,0.5]];portConstraint=eastwest;rounded=0;shadow=0;html=0;" parent="zkfFHV4jXpPFQw0GAbJ--0" vertex="1">
          <mxGeometry y="26" width="160" height="26" as="geometry" />
        </mxCell>
        <mxCell id="zkfFHV4jXpPFQw0GAbJ--4" value="" style="line;html=1;strokeWidth=1;align=left;verticalAlign=middle;spacingTop=-1;spacingLeft=3;spacingRight=3;rotatable=0;labelPosition=right;points=[];portConstraint=eastwest;fillColor=#f8cecc;strokeColor=#b85450;" parent="zkfFHV4jXpPFQw0GAbJ--0" vertex="1">
          <mxGeometry y="52" width="160" height="8" as="geometry" />
        </mxCell>
        <mxCell id="zkfFHV4jXpPFQw0GAbJ--6" value="PassingNode" style="swimlane;fontStyle=2;align=center;verticalAlign=top;childLayout=stackLayout;horizontal=1;startSize=26;horizontalStack=0;resizeParent=1;resizeLast=0;collapsible=1;marginBottom=0;rounded=0;shadow=0;strokeWidth=1;fillColor=#eeeeee;strokeColor=#36393d;" parent="WIyWlLk6GJQsqaUBKTNV-1" vertex="1">
          <mxGeometry x="370" y="320" width="160" height="100" as="geometry">
            <mxRectangle x="130" y="380" width="160" height="26" as="alternateBounds" />
          </mxGeometry>
        </mxCell>
        <mxCell id="zkfFHV4jXpPFQw0GAbJ--7" value="order (Integer)" style="text;align=left;verticalAlign=top;spacingLeft=4;spacingRight=4;overflow=hidden;rotatable=0;points=[[0,0.5],[1,0.5]];portConstraint=eastwest;" parent="zkfFHV4jXpPFQw0GAbJ--6" vertex="1">
          <mxGeometry y="26" width="160" height="26" as="geometry" />
        </mxCell>
        <mxCell id="zkfFHV4jXpPFQw0GAbJ--8" value="busNo (String)" style="text;align=left;verticalAlign=top;spacingLeft=4;spacingRight=4;overflow=hidden;rotatable=0;points=[[0,0.5],[1,0.5]];portConstraint=eastwest;rounded=0;shadow=0;html=0;" parent="zkfFHV4jXpPFQw0GAbJ--6" vertex="1">
          <mxGeometry y="52" width="160" height="26" as="geometry" />
        </mxCell>
        <mxCell id="zkfFHV4jXpPFQw0GAbJ--9" value="" style="line;html=1;strokeWidth=1;align=left;verticalAlign=middle;spacingTop=-1;spacingLeft=3;spacingRight=3;rotatable=0;labelPosition=right;points=[];portConstraint=eastwest;fillColor=#eeeeee;strokeColor=#36393d;" parent="zkfFHV4jXpPFQw0GAbJ--6" vertex="1">
          <mxGeometry y="78" width="160" height="8" as="geometry" />
        </mxCell>
        <mxCell id="zkfFHV4jXpPFQw0GAbJ--12" value="" style="endArrow=block;endSize=10;endFill=0;shadow=0;strokeWidth=1;rounded=0;edgeStyle=elbowEdgeStyle;elbow=vertical;entryX=0.75;entryY=1;entryDx=0;entryDy=0;exitX=0.5;exitY=0;exitDx=0;exitDy=0;" parent="WIyWlLk6GJQsqaUBKTNV-1" source="zkfFHV4jXpPFQw0GAbJ--6" target="X7Wm0wWlR6N1wWY1FZSC-0" edge="1">
          <mxGeometry width="160" relative="1" as="geometry">
            <mxPoint x="120.16999999999996" y="283" as="sourcePoint" />
            <mxPoint x="120.16999999999996" y="283" as="targetPoint" />
            <Array as="points">
              <mxPoint x="430" y="280" />
            </Array>
          </mxGeometry>
        </mxCell>
        <mxCell id="zkfFHV4jXpPFQw0GAbJ--13" value="KneelingBus" style="swimlane;fontStyle=2;align=center;verticalAlign=top;childLayout=stackLayout;horizontal=1;startSize=26;horizontalStack=0;resizeParent=1;resizeLast=0;collapsible=1;marginBottom=0;rounded=0;shadow=0;strokeWidth=1;fillColor=#f8cecc;strokeColor=#b85450;" parent="WIyWlLk6GJQsqaUBKTNV-1" vertex="1">
          <mxGeometry x="480" y="120" width="160" height="80" as="geometry">
            <mxRectangle x="340" y="380" width="170" height="26" as="alternateBounds" />
          </mxGeometry>
        </mxCell>
        <mxCell id="zkfFHV4jXpPFQw0GAbJ--14" value="busNo (String)" style="text;align=left;verticalAlign=top;spacingLeft=4;spacingRight=4;overflow=hidden;rotatable=0;points=[[0,0.5],[1,0.5]];portConstraint=eastwest;" parent="zkfFHV4jXpPFQw0GAbJ--13" vertex="1">
          <mxGeometry y="26" width="160" height="26" as="geometry" />
        </mxCell>
        <mxCell id="zkfFHV4jXpPFQw0GAbJ--15" value="" style="line;html=1;strokeWidth=1;align=left;verticalAlign=middle;spacingTop=-1;spacingLeft=3;spacingRight=3;rotatable=0;labelPosition=right;points=[];portConstraint=eastwest;fillColor=#f8cecc;strokeColor=#b85450;" parent="zkfFHV4jXpPFQw0GAbJ--13" vertex="1">
          <mxGeometry y="52" width="160" height="8" as="geometry" />
        </mxCell>
        <mxCell id="zkfFHV4jXpPFQw0GAbJ--26" value="" style="endArrow=open;shadow=0;strokeWidth=1;rounded=0;endFill=1;edgeStyle=orthogonalEdgeStyle;entryX=0.896;entryY=0.003;entryDx=0;entryDy=0;exitX=0;exitY=0.5;exitDx=0;exitDy=0;entryPerimeter=0;" parent="WIyWlLk6GJQsqaUBKTNV-1" source="zkfFHV4jXpPFQw0GAbJ--3" target="NNAgDV5kl5tZtwMsC2Bn-0" edge="1">
          <mxGeometry relative="1" as="geometry">
            <mxPoint x="420" y="272" as="sourcePoint" />
            <mxPoint x="480" y="318.9999999999999" as="targetPoint" />
            <Array as="points">
              <mxPoint x="343" y="299" />
            </Array>
          </mxGeometry>
        </mxCell>
        <mxCell id="zkfFHV4jXpPFQw0GAbJ--28" value="*" style="resizable=0;align=right;verticalAlign=bottom;labelBackgroundColor=none;fontSize=12;" parent="zkfFHV4jXpPFQw0GAbJ--26" connectable="0" vertex="1">
          <mxGeometry x="1" relative="1" as="geometry">
            <mxPoint x="-6" y="25" as="offset" />
          </mxGeometry>
        </mxCell>
        <mxCell id="zkfFHV4jXpPFQw0GAbJ--29" value="passes" style="text;html=1;resizable=0;points=[];;align=center;verticalAlign=middle;labelBackgroundColor=none;rounded=0;shadow=0;strokeWidth=1;fontSize=12;" parent="zkfFHV4jXpPFQw0GAbJ--26" vertex="1" connectable="0">
          <mxGeometry x="0.5" y="49" relative="1" as="geometry">
            <mxPoint x="133" y="-59" as="offset" />
          </mxGeometry>
        </mxCell>
        <mxCell id="NNAgDV5kl5tZtwMsC2Bn-0" value="Node" style="swimlane;fontStyle=2;align=center;verticalAlign=top;childLayout=stackLayout;horizontal=1;startSize=26;horizontalStack=0;resizeParent=1;resizeLast=0;collapsible=1;marginBottom=0;rounded=0;shadow=0;strokeWidth=1;fillColor=#f8cecc;strokeColor=#b85450;" parent="WIyWlLk6GJQsqaUBKTNV-1" vertex="1">
          <mxGeometry x="200" y="320" width="160" height="100" as="geometry">
            <mxRectangle x="220" y="120" width="160" height="26" as="alternateBounds" />
          </mxGeometry>
        </mxCell>
        <mxCell id="NNAgDV5kl5tZtwMsC2Bn-5" value="longitude (Double)" style="text;align=left;verticalAlign=top;spacingLeft=4;spacingRight=4;overflow=hidden;rotatable=0;points=[[0,0.5],[1,0.5]];portConstraint=eastwest;rounded=0;shadow=0;html=0;" parent="NNAgDV5kl5tZtwMsC2Bn-0" vertex="1">
          <mxGeometry y="26" width="160" height="26" as="geometry" />
        </mxCell>
        <mxCell id="NNAgDV5kl5tZtwMsC2Bn-6" value="latitude (Double)" style="text;align=left;verticalAlign=top;spacingLeft=4;spacingRight=4;overflow=hidden;rotatable=0;points=[[0,0.5],[1,0.5]];portConstraint=eastwest;rounded=0;shadow=0;html=0;" parent="NNAgDV5kl5tZtwMsC2Bn-0" vertex="1">
          <mxGeometry y="52" width="160" height="26" as="geometry" />
        </mxCell>
        <mxCell id="NNAgDV5kl5tZtwMsC2Bn-4" value="" style="line;html=1;strokeWidth=1;align=left;verticalAlign=middle;spacingTop=-1;spacingLeft=3;spacingRight=3;rotatable=0;labelPosition=right;points=[];portConstraint=eastwest;fillColor=#f8cecc;strokeColor=#b85450;" parent="NNAgDV5kl5tZtwMsC2Bn-0" vertex="1">
          <mxGeometry y="78" width="160" height="8" as="geometry" />
        </mxCell>
        <mxCell id="NNAgDV5kl5tZtwMsC2Bn-8" value="NodeController" style="swimlane;fontStyle=2;align=center;verticalAlign=top;childLayout=stackLayout;horizontal=1;startSize=26;horizontalStack=0;resizeParent=1;resizeLast=0;collapsible=1;marginBottom=0;rounded=0;shadow=0;strokeWidth=1;fillColor=#f8cecc;strokeColor=#b85450;" parent="WIyWlLk6GJQsqaUBKTNV-1" vertex="1">
          <mxGeometry x="40" y="770" width="400" height="130" as="geometry">
            <mxRectangle x="220" y="120" width="160" height="26" as="alternateBounds" />
          </mxGeometry>
        </mxCell>
        <mxCell id="NNAgDV5kl5tZtwMsC2Bn-11" value=" " style="text;align=left;verticalAlign=top;spacingLeft=4;spacingRight=4;overflow=hidden;rotatable=0;points=[[0,0.5],[1,0.5]];portConstraint=eastwest;rounded=0;shadow=0;html=0;" parent="NNAgDV5kl5tZtwMsC2Bn-8" vertex="1">
          <mxGeometry y="26" width="400" height="14" as="geometry" />
        </mxCell>
        <mxCell id="NNAgDV5kl5tZtwMsC2Bn-14" value="" style="line;html=1;strokeWidth=1;align=left;verticalAlign=middle;spacingTop=-1;spacingLeft=3;spacingRight=3;rotatable=0;labelPosition=right;points=[];portConstraint=eastwest;fillColor=#f8cecc;strokeColor=#b85450;" parent="NNAgDV5kl5tZtwMsC2Bn-8" vertex="1">
          <mxGeometry y="40" width="400" height="8" as="geometry" />
        </mxCell>
        <mxCell id="NNAgDV5kl5tZtwMsC2Bn-13" value="RealtimeBusArrivalInfoResponse getRealtimeBusArrivalInfo(nodeId)" style="text;align=left;verticalAlign=top;spacingLeft=4;spacingRight=4;overflow=hidden;rotatable=0;points=[[0,0.5],[1,0.5]];portConstraint=eastwest;rounded=0;shadow=0;html=0;" parent="NNAgDV5kl5tZtwMsC2Bn-8" vertex="1">
          <mxGeometry y="48" width="400" height="26" as="geometry" />
        </mxCell>
        <mxCell id="NNAgDV5kl5tZtwMsC2Bn-15" value="ArrayList&lt;Node&gt; getArroundNodeInfo(longitude, latitude)" style="text;align=left;verticalAlign=top;spacingLeft=4;spacingRight=4;overflow=hidden;rotatable=0;points=[[0,0.5],[1,0.5]];portConstraint=eastwest;rounded=0;shadow=0;html=0;" parent="NNAgDV5kl5tZtwMsC2Bn-8" vertex="1">
          <mxGeometry y="74" width="400" height="26" as="geometry" />
        </mxCell>
        <mxCell id="0v5wqwy9z-cO2fE_teIm-12" value="ArrayList&lt;Node&gt; getNodeList(nodeId, nodeName)" style="text;align=left;verticalAlign=top;spacingLeft=4;spacingRight=4;overflow=hidden;rotatable=0;points=[[0,0.5],[1,0.5]];portConstraint=eastwest;rounded=0;shadow=0;html=0;" parent="NNAgDV5kl5tZtwMsC2Bn-8" vertex="1">
          <mxGeometry y="100" width="400" height="30" as="geometry" />
        </mxCell>
        <mxCell id="NNAgDV5kl5tZtwMsC2Bn-16" value="RouteController" style="swimlane;fontStyle=2;align=center;verticalAlign=top;childLayout=stackLayout;horizontal=1;startSize=26;horizontalStack=0;resizeParent=1;resizeLast=0;collapsible=1;marginBottom=0;rounded=0;shadow=0;strokeWidth=1;fillColor=#f8cecc;strokeColor=#b85450;" parent="WIyWlLk6GJQsqaUBKTNV-1" vertex="1">
          <mxGeometry x="480" y="770" width="400" height="100" as="geometry">
            <mxRectangle x="220" y="120" width="160" height="26" as="alternateBounds" />
          </mxGeometry>
        </mxCell>
        <mxCell id="NNAgDV5kl5tZtwMsC2Bn-17" value=" " style="text;align=left;verticalAlign=top;spacingLeft=4;spacingRight=4;overflow=hidden;rotatable=0;points=[[0,0.5],[1,0.5]];portConstraint=eastwest;rounded=0;shadow=0;html=0;" parent="NNAgDV5kl5tZtwMsC2Bn-16" vertex="1">
          <mxGeometry y="26" width="400" height="14" as="geometry" />
        </mxCell>
        <mxCell id="NNAgDV5kl5tZtwMsC2Bn-18" value="" style="line;html=1;strokeWidth=1;align=left;verticalAlign=middle;spacingTop=-1;spacingLeft=3;spacingRight=3;rotatable=0;labelPosition=right;points=[];portConstraint=eastwest;fillColor=#f8cecc;strokeColor=#b85450;" parent="NNAgDV5kl5tZtwMsC2Bn-16" vertex="1">
          <mxGeometry y="40" width="400" height="8" as="geometry" />
        </mxCell>
        <mxCell id="NNAgDV5kl5tZtwMsC2Bn-19" value="RealtimeBusLocationInfoResponse getRealtimeBusLocationInfo(routeId)" style="text;align=left;verticalAlign=top;spacingLeft=4;spacingRight=4;overflow=hidden;rotatable=0;points=[[0,0.5],[1,0.5]];portConstraint=eastwest;rounded=0;shadow=0;html=0;" parent="NNAgDV5kl5tZtwMsC2Bn-16" vertex="1">
          <mxGeometry y="48" width="400" height="26" as="geometry" />
        </mxCell>
        <mxCell id="0v5wqwy9z-cO2fE_teIm-8" value="ArrayList&lt;searchedRoute&gt; getRouteList(routeNo)" style="text;align=left;verticalAlign=top;spacingLeft=4;spacingRight=4;overflow=hidden;rotatable=0;points=[[0,0.5],[1,0.5]];portConstraint=eastwest;rounded=0;shadow=0;html=0;fontColor=default;fontStyle=0;" parent="NNAgDV5kl5tZtwMsC2Bn-16" vertex="1">
          <mxGeometry y="74" width="400" height="26" as="geometry" />
        </mxCell>
        <mxCell id="NNAgDV5kl5tZtwMsC2Bn-21" value="PathController" style="swimlane;fontStyle=2;align=center;verticalAlign=top;childLayout=stackLayout;horizontal=1;startSize=26;horizontalStack=0;resizeParent=1;resizeLast=0;collapsible=1;marginBottom=0;rounded=0;shadow=0;strokeWidth=1;fillColor=#f8cecc;strokeColor=#b85450;" parent="WIyWlLk6GJQsqaUBKTNV-1" vertex="1">
          <mxGeometry x="920" y="770" width="400" height="100" as="geometry">
            <mxRectangle x="220" y="120" width="160" height="26" as="alternateBounds" />
          </mxGeometry>
        </mxCell>
        <mxCell id="NNAgDV5kl5tZtwMsC2Bn-22" value=" " style="text;align=left;verticalAlign=top;spacingLeft=4;spacingRight=4;overflow=hidden;rotatable=0;points=[[0,0.5],[1,0.5]];portConstraint=eastwest;rounded=0;shadow=0;html=0;" parent="NNAgDV5kl5tZtwMsC2Bn-21" vertex="1">
          <mxGeometry y="26" width="400" height="14" as="geometry" />
        </mxCell>
        <mxCell id="NNAgDV5kl5tZtwMsC2Bn-23" value="" style="line;html=1;strokeWidth=1;align=left;verticalAlign=middle;spacingTop=-1;spacingLeft=3;spacingRight=3;rotatable=0;labelPosition=right;points=[];portConstraint=eastwest;fillColor=#f8cecc;strokeColor=#b85450;" parent="NNAgDV5kl5tZtwMsC2Bn-21" vertex="1">
          <mxGeometry y="40" width="400" height="8" as="geometry" />
        </mxCell>
        <mxCell id="NNAgDV5kl5tZtwMsC2Bn-25" value="ArrayList&lt;Path&gt; getPathInfo(departureLongitude, departureLatitude,&#xa;                                                arrivalLongitude, arrivalLatitude)" style="text;align=left;verticalAlign=top;spacingLeft=4;spacingRight=4;overflow=hidden;rotatable=0;points=[[0,0.5],[1,0.5]];portConstraint=eastwest;rounded=0;shadow=0;html=0;" parent="NNAgDV5kl5tZtwMsC2Bn-21" vertex="1">
          <mxGeometry y="48" width="400" height="40" as="geometry" />
        </mxCell>
        <mxCell id="NNAgDV5kl5tZtwMsC2Bn-29" value="Path" style="swimlane;fontStyle=2;align=center;verticalAlign=top;childLayout=stackLayout;horizontal=1;startSize=26;horizontalStack=0;resizeParent=1;resizeLast=0;collapsible=1;marginBottom=0;rounded=0;shadow=0;strokeWidth=1;fillColor=#eeeeee;strokeColor=#36393d;" parent="WIyWlLk6GJQsqaUBKTNV-1" vertex="1">
          <mxGeometry x="630" y="600" width="160" height="120" as="geometry">
            <mxRectangle x="220" y="120" width="160" height="26" as="alternateBounds" />
          </mxGeometry>
        </mxCell>
        <mxCell id="NNAgDV5kl5tZtwMsC2Bn-30" value="duration (Integer)" style="text;align=left;verticalAlign=top;spacingLeft=4;spacingRight=4;overflow=hidden;rotatable=0;points=[[0,0.5],[1,0.5]];portConstraint=eastwest;" parent="NNAgDV5kl5tZtwMsC2Bn-29" vertex="1">
          <mxGeometry y="26" width="160" height="26" as="geometry" />
        </mxCell>
        <mxCell id="_9iBfgIFSn6Gg5AQvQV6-0" value="labels (ArrayList&lt;String&gt;)" style="text;align=left;verticalAlign=top;spacingLeft=4;spacingRight=4;overflow=hidden;rotatable=0;points=[[0,0.5],[1,0.5]];portConstraint=eastwest;" vertex="1" parent="NNAgDV5kl5tZtwMsC2Bn-29">
          <mxGeometry y="52" width="160" height="26" as="geometry" />
        </mxCell>
        <mxCell id="NNAgDV5kl5tZtwMsC2Bn-31" value="stepList (ArrayList&lt;Step&gt;)" style="text;align=left;verticalAlign=top;spacingLeft=4;spacingRight=4;overflow=hidden;rotatable=0;points=[[0,0.5],[1,0.5]];portConstraint=eastwest;rounded=0;shadow=0;html=0;" parent="NNAgDV5kl5tZtwMsC2Bn-29" vertex="1">
          <mxGeometry y="78" width="160" height="26" as="geometry" />
        </mxCell>
        <mxCell id="NNAgDV5kl5tZtwMsC2Bn-33" value="" style="line;html=1;strokeWidth=1;align=left;verticalAlign=middle;spacingTop=-1;spacingLeft=3;spacingRight=3;rotatable=0;labelPosition=right;points=[];portConstraint=eastwest;fillColor=#eeeeee;strokeColor=#36393d;" parent="NNAgDV5kl5tZtwMsC2Bn-29" vertex="1">
          <mxGeometry y="104" width="160" height="8" as="geometry" />
        </mxCell>
        <mxCell id="NNAgDV5kl5tZtwMsC2Bn-34" value="Step" style="swimlane;fontStyle=2;align=center;verticalAlign=top;childLayout=stackLayout;horizontal=1;startSize=26;horizontalStack=0;resizeParent=1;resizeLast=0;collapsible=1;marginBottom=0;rounded=0;shadow=0;strokeWidth=1;fillColor=#eeeeee;strokeColor=#36393d;" parent="WIyWlLk6GJQsqaUBKTNV-1" vertex="1">
          <mxGeometry x="590" y="380" width="240" height="180" as="geometry">
            <mxRectangle x="220" y="120" width="160" height="26" as="alternateBounds" />
          </mxGeometry>
        </mxCell>
        <mxCell id="NNAgDV5kl5tZtwMsC2Bn-35" value="type (Integer)" style="text;align=left;verticalAlign=top;spacingLeft=4;spacingRight=4;overflow=hidden;rotatable=0;points=[[0,0.5],[1,0.5]];portConstraint=eastwest;" parent="NNAgDV5kl5tZtwMsC2Bn-34" vertex="1">
          <mxGeometry y="26" width="240" height="26" as="geometry" />
        </mxCell>
        <mxCell id="NNAgDV5kl5tZtwMsC2Bn-36" value="duration (Integer)" style="text;align=left;verticalAlign=top;spacingLeft=4;spacingRight=4;overflow=hidden;rotatable=0;points=[[0,0.5],[1,0.5]];portConstraint=eastwest;rounded=0;shadow=0;html=0;" parent="NNAgDV5kl5tZtwMsC2Bn-34" vertex="1">
          <mxGeometry y="52" width="240" height="26" as="geometry" />
        </mxCell>
        <mxCell id="NNAgDV5kl5tZtwMsC2Bn-37" value="departure (String)" style="text;align=left;verticalAlign=top;spacingLeft=4;spacingRight=4;overflow=hidden;rotatable=0;points=[[0,0.5],[1,0.5]];portConstraint=eastwest;rounded=0;shadow=0;html=0;" parent="NNAgDV5kl5tZtwMsC2Bn-34" vertex="1">
          <mxGeometry y="78" width="240" height="26" as="geometry" />
        </mxCell>
        <mxCell id="NNAgDV5kl5tZtwMsC2Bn-38" value="arrival (String)" style="text;align=left;verticalAlign=top;spacingLeft=4;spacingRight=4;overflow=hidden;rotatable=0;points=[[0,0.5],[1,0.5]];portConstraint=eastwest;rounded=0;shadow=0;html=0;" parent="NNAgDV5kl5tZtwMsC2Bn-34" vertex="1">
          <mxGeometry y="104" width="240" height="26" as="geometry" />
        </mxCell>
        <mxCell id="NNAgDV5kl5tZtwMsC2Bn-39" value="arrivalRouteList (ArrayList&lt;ArrivalRoute&gt;)" style="text;align=left;verticalAlign=top;spacingLeft=4;spacingRight=4;overflow=hidden;rotatable=0;points=[[0,0.5],[1,0.5]];portConstraint=eastwest;rounded=0;shadow=0;html=0;" parent="NNAgDV5kl5tZtwMsC2Bn-34" vertex="1">
          <mxGeometry y="130" width="240" height="26" as="geometry" />
        </mxCell>
        <mxCell id="NNAgDV5kl5tZtwMsC2Bn-40" value="" style="line;html=1;strokeWidth=1;align=left;verticalAlign=middle;spacingTop=-1;spacingLeft=3;spacingRight=3;rotatable=0;labelPosition=right;points=[];portConstraint=eastwest;fillColor=#eeeeee;strokeColor=#36393d;" parent="NNAgDV5kl5tZtwMsC2Bn-34" vertex="1">
          <mxGeometry y="156" width="240" height="8" as="geometry" />
        </mxCell>
        <mxCell id="NNAgDV5kl5tZtwMsC2Bn-41" value="" style="endArrow=open;shadow=0;strokeWidth=1;rounded=0;endFill=1;entryX=0.5;entryY=1;entryDx=0;entryDy=0;exitX=0.5;exitY=0;exitDx=0;exitDy=0;edgeStyle=elbowEdgeStyle;" parent="WIyWlLk6GJQsqaUBKTNV-1" source="NNAgDV5kl5tZtwMsC2Bn-29" target="NNAgDV5kl5tZtwMsC2Bn-34" edge="1">
          <mxGeometry x="0.5" y="41" relative="1" as="geometry">
            <mxPoint x="590" y="910" as="sourcePoint" />
            <mxPoint x="470" y="970" as="targetPoint" />
            <mxPoint x="-40" y="32" as="offset" />
            <Array as="points" />
          </mxGeometry>
        </mxCell>
        <mxCell id="NNAgDV5kl5tZtwMsC2Bn-42" value="*" style="resizable=0;align=right;verticalAlign=bottom;labelBackgroundColor=none;fontSize=12;" parent="NNAgDV5kl5tZtwMsC2Bn-41" connectable="0" vertex="1">
          <mxGeometry x="0.98" relative="1" as="geometry">
            <mxPoint x="-7" y="19" as="offset" />
          </mxGeometry>
        </mxCell>
        <mxCell id="NNAgDV5kl5tZtwMsC2Bn-43" value="contains" style="text;html=1;resizable=0;points=[];;align=center;verticalAlign=middle;labelBackgroundColor=none;rounded=0;shadow=0;strokeWidth=1;fontSize=12;" parent="NNAgDV5kl5tZtwMsC2Bn-41" vertex="1" connectable="0">
          <mxGeometry x="0.5" y="49" relative="1" as="geometry">
            <mxPoint x="22" y="15" as="offset" />
          </mxGeometry>
        </mxCell>
        <mxCell id="NNAgDV5kl5tZtwMsC2Bn-44" value="RealtimeBusArrivalInfoResponse" style="swimlane;fontStyle=2;align=center;verticalAlign=top;childLayout=stackLayout;horizontal=1;startSize=26;horizontalStack=0;resizeParent=1;resizeLast=0;collapsible=1;marginBottom=0;rounded=0;shadow=0;strokeWidth=1;fillColor=#d5e8d4;strokeColor=#82b366;" parent="WIyWlLk6GJQsqaUBKTNV-1" vertex="1">
          <mxGeometry x="860" y="430" width="240" height="100" as="geometry">
            <mxRectangle x="340" y="380" width="170" height="26" as="alternateBounds" />
          </mxGeometry>
        </mxCell>
        <mxCell id="NNAgDV5kl5tZtwMsC2Bn-45" value="node (Node)" style="text;align=left;verticalAlign=top;spacingLeft=4;spacingRight=4;overflow=hidden;rotatable=0;points=[[0,0.5],[1,0.5]];portConstraint=eastwest;" parent="NNAgDV5kl5tZtwMsC2Bn-44" vertex="1">
          <mxGeometry y="26" width="240" height="26" as="geometry" />
        </mxCell>
        <mxCell id="NNAgDV5kl5tZtwMsC2Bn-47" value="arrivalRouteList (ArrayList&lt;ArrivalRoute&gt;)" style="text;align=left;verticalAlign=top;spacingLeft=4;spacingRight=4;overflow=hidden;rotatable=0;points=[[0,0.5],[1,0.5]];portConstraint=eastwest;" parent="NNAgDV5kl5tZtwMsC2Bn-44" vertex="1">
          <mxGeometry y="52" width="240" height="26" as="geometry" />
        </mxCell>
        <mxCell id="NNAgDV5kl5tZtwMsC2Bn-46" value="" style="line;html=1;strokeWidth=1;align=left;verticalAlign=middle;spacingTop=-1;spacingLeft=3;spacingRight=3;rotatable=0;labelPosition=right;points=[];portConstraint=eastwest;fillColor=#d5e8d4;strokeColor=#82b366;" parent="NNAgDV5kl5tZtwMsC2Bn-44" vertex="1">
          <mxGeometry y="78" width="240" height="8" as="geometry" />
        </mxCell>
        <mxCell id="NNAgDV5kl5tZtwMsC2Bn-48" value="ArrivalRoute" style="swimlane;fontStyle=2;align=center;verticalAlign=top;childLayout=stackLayout;horizontal=1;startSize=26;horizontalStack=0;resizeParent=1;resizeLast=0;collapsible=1;marginBottom=0;rounded=0;shadow=0;strokeWidth=1;fillColor=#eeeeee;strokeColor=#36393d;" parent="WIyWlLk6GJQsqaUBKTNV-1" vertex="1">
          <mxGeometry x="900" y="260" width="160" height="130" as="geometry">
            <mxRectangle x="220" y="120" width="160" height="26" as="alternateBounds" />
          </mxGeometry>
        </mxCell>
        <mxCell id="NNAgDV5kl5tZtwMsC2Bn-51" value="prevNodeCnt (Integer)" style="text;align=left;verticalAlign=top;spacingLeft=4;spacingRight=4;overflow=hidden;rotatable=0;points=[[0,0.5],[1,0.5]];portConstraint=eastwest;rounded=0;shadow=0;html=0;" parent="NNAgDV5kl5tZtwMsC2Bn-48" vertex="1">
          <mxGeometry y="26" width="160" height="26" as="geometry" />
        </mxCell>
        <mxCell id="NNAgDV5kl5tZtwMsC2Bn-52" value="arrTime (Integer)" style="text;align=left;verticalAlign=top;spacingLeft=4;spacingRight=4;overflow=hidden;rotatable=0;points=[[0,0.5],[1,0.5]];portConstraint=eastwest;rounded=0;shadow=0;html=0;" parent="NNAgDV5kl5tZtwMsC2Bn-48" vertex="1">
          <mxGeometry y="52" width="160" height="26" as="geometry" />
        </mxCell>
        <mxCell id="0v5wqwy9z-cO2fE_teIm-0" value="departureName (String)" style="text;align=left;verticalAlign=top;spacingLeft=4;spacingRight=4;overflow=hidden;rotatable=0;points=[[0,0.5],[1,0.5]];portConstraint=eastwest;rounded=0;shadow=0;html=0;" parent="NNAgDV5kl5tZtwMsC2Bn-48" vertex="1">
          <mxGeometry y="78" width="160" height="26" as="geometry" />
        </mxCell>
        <mxCell id="NNAgDV5kl5tZtwMsC2Bn-54" value="" style="line;html=1;strokeWidth=1;align=left;verticalAlign=middle;spacingTop=-1;spacingLeft=3;spacingRight=3;rotatable=0;labelPosition=right;points=[];portConstraint=eastwest;fillColor=#eeeeee;strokeColor=#36393d;" parent="NNAgDV5kl5tZtwMsC2Bn-48" vertex="1">
          <mxGeometry y="104" width="160" height="8" as="geometry" />
        </mxCell>
        <mxCell id="NNAgDV5kl5tZtwMsC2Bn-58" value="RealtimeBusLocationInfoResponse" style="swimlane;fontStyle=2;align=center;verticalAlign=top;childLayout=stackLayout;horizontal=1;startSize=26;horizontalStack=0;resizeParent=1;resizeLast=0;collapsible=1;marginBottom=0;rounded=0;shadow=0;strokeWidth=1;fillColor=#d5e8d4;strokeColor=#82b366;" parent="WIyWlLk6GJQsqaUBKTNV-1" vertex="1">
          <mxGeometry x="330" y="460" width="240" height="100" as="geometry">
            <mxRectangle x="340" y="380" width="170" height="26" as="alternateBounds" />
          </mxGeometry>
        </mxCell>
        <mxCell id="NNAgDV5kl5tZtwMsC2Bn-59" value="route (Route)" style="text;align=left;verticalAlign=top;spacingLeft=4;spacingRight=4;overflow=hidden;rotatable=0;points=[[0,0.5],[1,0.5]];portConstraint=eastwest;" parent="NNAgDV5kl5tZtwMsC2Bn-58" vertex="1">
          <mxGeometry y="26" width="240" height="26" as="geometry" />
        </mxCell>
        <mxCell id="NNAgDV5kl5tZtwMsC2Bn-60" value="passingNodeList (ArrayList&lt;PassingNode&gt;)" style="text;align=left;verticalAlign=top;spacingLeft=3;spacingRight=0;overflow=hidden;rotatable=0;points=[[0,0.5],[1,0.5]];portConstraint=eastwest;" parent="NNAgDV5kl5tZtwMsC2Bn-58" vertex="1">
          <mxGeometry y="52" width="240" height="26" as="geometry" />
        </mxCell>
        <mxCell id="NNAgDV5kl5tZtwMsC2Bn-61" value="" style="line;html=1;strokeWidth=1;align=left;verticalAlign=middle;spacingTop=-1;spacingLeft=3;spacingRight=3;rotatable=0;labelPosition=right;points=[];portConstraint=eastwest;fillColor=#d5e8d4;strokeColor=#82b366;" parent="NNAgDV5kl5tZtwMsC2Bn-58" vertex="1">
          <mxGeometry y="78" width="240" height="8" as="geometry" />
        </mxCell>
        <mxCell id="NNAgDV5kl5tZtwMsC2Bn-84" value="NodeService" style="swimlane;fontStyle=2;align=center;verticalAlign=top;childLayout=stackLayout;horizontal=1;startSize=26;horizontalStack=0;resizeParent=1;resizeLast=0;collapsible=1;marginBottom=0;rounded=0;shadow=0;strokeWidth=1;fillColor=#dae8fc;strokeColor=#6c8ebf;" parent="WIyWlLk6GJQsqaUBKTNV-1" vertex="1">
          <mxGeometry x="40" y="908" width="400" height="152" as="geometry">
            <mxRectangle x="220" y="120" width="160" height="26" as="alternateBounds" />
          </mxGeometry>
        </mxCell>
        <mxCell id="NNAgDV5kl5tZtwMsC2Bn-85" value=" " style="text;align=left;verticalAlign=top;spacingLeft=4;spacingRight=4;overflow=hidden;rotatable=0;points=[[0,0.5],[1,0.5]];portConstraint=eastwest;rounded=0;shadow=0;html=0;" parent="NNAgDV5kl5tZtwMsC2Bn-84" vertex="1">
          <mxGeometry y="26" width="400" height="14" as="geometry" />
        </mxCell>
        <mxCell id="NNAgDV5kl5tZtwMsC2Bn-86" value="" style="line;html=1;strokeWidth=1;align=left;verticalAlign=middle;spacingTop=-1;spacingLeft=3;spacingRight=3;rotatable=0;labelPosition=right;points=[];portConstraint=eastwest;fillColor=#dae8fc;strokeColor=#6c8ebf;" parent="NNAgDV5kl5tZtwMsC2Bn-84" vertex="1">
          <mxGeometry y="40" width="400" height="8" as="geometry" />
        </mxCell>
        <mxCell id="NNAgDV5kl5tZtwMsC2Bn-87" value="RealtimeBusArrivalInfoResponse getRealtimeBusArrivalInfo(nodeId)" style="text;align=left;verticalAlign=top;spacingLeft=4;spacingRight=4;overflow=hidden;rotatable=0;points=[[0,0.5],[1,0.5]];portConstraint=eastwest;rounded=0;shadow=0;html=0;" parent="NNAgDV5kl5tZtwMsC2Bn-84" vertex="1">
          <mxGeometry y="48" width="400" height="26" as="geometry" />
        </mxCell>
        <mxCell id="NNAgDV5kl5tZtwMsC2Bn-88" value="ArrayList&lt;Node&gt; getArroundNodeInfo(longitude, latitude)" style="text;align=left;verticalAlign=top;spacingLeft=4;spacingRight=4;overflow=hidden;rotatable=0;points=[[0,0.5],[1,0.5]];portConstraint=eastwest;rounded=0;shadow=0;html=0;" parent="NNAgDV5kl5tZtwMsC2Bn-84" vertex="1">
          <mxGeometry y="74" width="400" height="26" as="geometry" />
        </mxCell>
        <mxCell id="0v5wqwy9z-cO2fE_teIm-13" value="ArrayList&lt;Node&gt; getNodeList(nodeId, nodeName)" style="text;align=left;verticalAlign=top;spacingLeft=4;spacingRight=4;overflow=hidden;rotatable=0;points=[[0,0.5],[1,0.5]];portConstraint=eastwest;rounded=0;shadow=0;html=0;" parent="NNAgDV5kl5tZtwMsC2Bn-84" vertex="1">
          <mxGeometry y="100" width="400" height="26" as="geometry" />
        </mxCell>
        <mxCell id="0v5wqwy9z-cO2fE_teIm-26" value="Node getNodeByNaverId(naverNodeId)" style="text;align=left;verticalAlign=top;spacingLeft=4;spacingRight=4;overflow=hidden;rotatable=0;points=[[0,0.5],[1,0.5]];portConstraint=eastwest;rounded=0;shadow=0;html=0;fontColor=default;fontStyle=0;" parent="NNAgDV5kl5tZtwMsC2Bn-84" vertex="1">
          <mxGeometry y="126" width="400" height="26" as="geometry" />
        </mxCell>
        <mxCell id="NNAgDV5kl5tZtwMsC2Bn-89" value="RouteService" style="swimlane;fontStyle=2;align=center;verticalAlign=top;childLayout=stackLayout;horizontal=1;startSize=26;horizontalStack=0;resizeParent=1;resizeLast=0;collapsible=1;marginBottom=0;rounded=0;shadow=0;strokeWidth=1;fillColor=#dae8fc;strokeColor=#6c8ebf;" parent="WIyWlLk6GJQsqaUBKTNV-1" vertex="1">
          <mxGeometry x="480" y="880" width="400" height="152" as="geometry">
            <mxRectangle x="220" y="120" width="160" height="26" as="alternateBounds" />
          </mxGeometry>
        </mxCell>
        <mxCell id="NNAgDV5kl5tZtwMsC2Bn-90" value=" " style="text;align=left;verticalAlign=top;spacingLeft=4;spacingRight=4;overflow=hidden;rotatable=0;points=[[0,0.5],[1,0.5]];portConstraint=eastwest;rounded=0;shadow=0;html=0;" parent="NNAgDV5kl5tZtwMsC2Bn-89" vertex="1">
          <mxGeometry y="26" width="400" height="14" as="geometry" />
        </mxCell>
        <mxCell id="NNAgDV5kl5tZtwMsC2Bn-91" value="" style="line;html=1;strokeWidth=1;align=left;verticalAlign=middle;spacingTop=0;spacingLeft=3;spacingRight=3;rotatable=0;labelPosition=right;points=[];portConstraint=eastwest;fillColor=#dae8fc;strokeColor=#6c8ebf;" parent="NNAgDV5kl5tZtwMsC2Bn-89" vertex="1">
          <mxGeometry y="40" width="400" height="8" as="geometry" />
        </mxCell>
        <mxCell id="NNAgDV5kl5tZtwMsC2Bn-92" value="RealtimeBusLocationInfoResponse getRealtimeBusLocationInfo(routeId)" style="text;align=left;verticalAlign=top;spacingLeft=4;spacingRight=4;overflow=hidden;rotatable=0;points=[[0,0.5],[1,0.5]];portConstraint=eastwest;rounded=0;shadow=0;html=0;spacing=2;" parent="NNAgDV5kl5tZtwMsC2Bn-89" vertex="1">
          <mxGeometry y="48" width="400" height="26" as="geometry" />
        </mxCell>
        <mxCell id="NNAgDV5kl5tZtwMsC2Bn-93" value="String getDeparture(routeId)" style="text;align=left;verticalAlign=top;spacingLeft=4;spacingRight=4;overflow=hidden;rotatable=0;points=[[0,0.5],[1,0.5]];portConstraint=eastwest;rounded=0;shadow=0;html=0;" parent="NNAgDV5kl5tZtwMsC2Bn-89" vertex="1">
          <mxGeometry y="74" width="400" height="26" as="geometry" />
        </mxCell>
        <mxCell id="0v5wqwy9z-cO2fE_teIm-10" value="ArrayList&lt;searchedRoute&gt; getRouteList(routeNo)" style="text;align=left;verticalAlign=top;spacingLeft=4;spacingRight=4;overflow=hidden;rotatable=0;points=[[0,0.5],[1,0.5]];portConstraint=eastwest;rounded=0;shadow=0;html=0;fontColor=default;fontStyle=0;" parent="NNAgDV5kl5tZtwMsC2Bn-89" vertex="1">
          <mxGeometry y="100" width="400" height="26" as="geometry" />
        </mxCell>
        <mxCell id="0v5wqwy9z-cO2fE_teIm-27" value="Route getRoutebyNaverId(naverRouteId)" style="text;align=left;verticalAlign=top;spacingLeft=4;spacingRight=4;overflow=hidden;rotatable=0;points=[[0,0.5],[1,0.5]];portConstraint=eastwest;rounded=0;shadow=0;html=0;fontColor=default;fontStyle=0;" parent="NNAgDV5kl5tZtwMsC2Bn-89" vertex="1">
          <mxGeometry y="126" width="400" height="26" as="geometry" />
        </mxCell>
        <mxCell id="NNAgDV5kl5tZtwMsC2Bn-94" value="RouteRepository" style="swimlane;fontStyle=2;align=center;verticalAlign=top;childLayout=stackLayout;horizontal=1;startSize=26;horizontalStack=0;resizeParent=1;resizeLast=0;collapsible=1;marginBottom=0;rounded=0;shadow=0;strokeWidth=1;fillColor=#d5e8d4;strokeColor=#82b366;" parent="WIyWlLk6GJQsqaUBKTNV-1" vertex="1">
          <mxGeometry x="550" y="1040" width="260" height="130" as="geometry">
            <mxRectangle x="220" y="120" width="160" height="26" as="alternateBounds" />
          </mxGeometry>
        </mxCell>
        <mxCell id="NNAgDV5kl5tZtwMsC2Bn-95" value=" " style="text;align=left;verticalAlign=top;spacingLeft=4;spacingRight=4;overflow=hidden;rotatable=0;points=[[0,0.5],[1,0.5]];portConstraint=eastwest;rounded=0;shadow=0;html=0;" parent="NNAgDV5kl5tZtwMsC2Bn-94" vertex="1">
          <mxGeometry y="26" width="260" height="14" as="geometry" />
        </mxCell>
        <mxCell id="NNAgDV5kl5tZtwMsC2Bn-96" value="" style="line;html=1;strokeWidth=1;align=left;verticalAlign=middle;spacingTop=-1;spacingLeft=3;spacingRight=3;rotatable=0;labelPosition=right;points=[];portConstraint=eastwest;fillColor=#d5e8d4;strokeColor=#82b366;" parent="NNAgDV5kl5tZtwMsC2Bn-94" vertex="1">
          <mxGeometry y="40" width="260" height="8" as="geometry" />
        </mxCell>
        <mxCell id="NNAgDV5kl5tZtwMsC2Bn-97" value="Optional&lt;Route&gt; findById(routeId)" style="text;align=left;verticalAlign=top;spacingLeft=4;spacingRight=4;overflow=hidden;rotatable=0;points=[[0,0.5],[1,0.5]];portConstraint=eastwest;rounded=0;shadow=0;html=0;" parent="NNAgDV5kl5tZtwMsC2Bn-94" vertex="1">
          <mxGeometry y="48" width="260" height="26" as="geometry" />
        </mxCell>
        <mxCell id="0v5wqwy9z-cO2fE_teIm-11" value="List&lt;Route&gt; findByNoContaining(routeNo)" style="text;align=left;verticalAlign=top;spacingLeft=4;spacingRight=4;overflow=hidden;rotatable=0;points=[[0,0.5],[1,0.5]];portConstraint=eastwest;rounded=0;shadow=0;html=0;" parent="NNAgDV5kl5tZtwMsC2Bn-94" vertex="1">
          <mxGeometry y="74" width="260" height="26" as="geometry" />
        </mxCell>
        <mxCell id="q1hTq-5MQLfCPgQxP5bT-1" value="Optional&lt;Route&gt; findByNaverId(naverRouteId)" style="text;align=left;verticalAlign=top;spacingLeft=4;spacingRight=4;overflow=hidden;rotatable=0;points=[[0,0.5],[1,0.5]];portConstraint=eastwest;rounded=0;shadow=0;html=0;" parent="NNAgDV5kl5tZtwMsC2Bn-94" vertex="1">
          <mxGeometry y="100" width="260" height="26" as="geometry" />
        </mxCell>
        <mxCell id="NNAgDV5kl5tZtwMsC2Bn-99" value="PathService" style="swimlane;fontStyle=2;align=center;verticalAlign=top;childLayout=stackLayout;horizontal=1;startSize=26;horizontalStack=0;resizeParent=1;resizeLast=0;collapsible=1;marginBottom=0;rounded=0;shadow=0;strokeWidth=1;fillColor=#dae8fc;strokeColor=#6c8ebf;" parent="WIyWlLk6GJQsqaUBKTNV-1" vertex="1">
          <mxGeometry x="920" y="880" width="400" height="100" as="geometry">
            <mxRectangle x="220" y="120" width="160" height="26" as="alternateBounds" />
          </mxGeometry>
        </mxCell>
        <mxCell id="NNAgDV5kl5tZtwMsC2Bn-100" value=" " style="text;align=left;verticalAlign=top;spacingLeft=4;spacingRight=4;overflow=hidden;rotatable=0;points=[[0,0.5],[1,0.5]];portConstraint=eastwest;rounded=0;shadow=0;html=0;" parent="NNAgDV5kl5tZtwMsC2Bn-99" vertex="1">
          <mxGeometry y="26" width="400" height="14" as="geometry" />
        </mxCell>
        <mxCell id="NNAgDV5kl5tZtwMsC2Bn-101" value="" style="line;html=1;strokeWidth=1;align=left;verticalAlign=middle;spacingTop=-1;spacingLeft=3;spacingRight=3;rotatable=0;labelPosition=right;points=[];portConstraint=eastwest;fillColor=#dae8fc;strokeColor=#6c8ebf;" parent="NNAgDV5kl5tZtwMsC2Bn-99" vertex="1">
          <mxGeometry y="40" width="400" height="8" as="geometry" />
        </mxCell>
        <mxCell id="NNAgDV5kl5tZtwMsC2Bn-103" value="ArrayList&lt;Path&gt; getPathInfo(departureLongitude, departureLatitude,&#xa;                                                arrivalLongitude, arrivalLatitude)" style="text;align=left;verticalAlign=top;spacingLeft=4;spacingRight=4;overflow=hidden;rotatable=0;points=[[0,0.5],[1,0.5]];portConstraint=eastwest;rounded=0;shadow=0;html=0;fontStyle=0;fontColor=#000000;" parent="NNAgDV5kl5tZtwMsC2Bn-99" vertex="1">
          <mxGeometry y="48" width="400" height="40" as="geometry" />
        </mxCell>
        <mxCell id="NNAgDV5kl5tZtwMsC2Bn-104" value="TAGOService" style="swimlane;fontStyle=2;align=center;verticalAlign=top;childLayout=stackLayout;horizontal=1;startSize=26;horizontalStack=0;resizeParent=1;resizeLast=0;collapsible=1;marginBottom=0;rounded=0;shadow=0;strokeWidth=1;fillColor=#dae8fc;strokeColor=#6c8ebf;" parent="WIyWlLk6GJQsqaUBKTNV-1" vertex="1">
          <mxGeometry x="920" y="1010" width="400" height="232" as="geometry">
            <mxRectangle x="220" y="120" width="160" height="26" as="alternateBounds" />
          </mxGeometry>
        </mxCell>
        <mxCell id="NNAgDV5kl5tZtwMsC2Bn-105" value="String serviceKey" style="text;align=left;verticalAlign=middle;spacingLeft=4;spacingRight=4;overflow=hidden;rotatable=0;points=[[0,0.5],[1,0.5]];portConstraint=eastwest;rounded=0;shadow=0;html=0;fontColor=default;fontStyle=0;" parent="NNAgDV5kl5tZtwMsC2Bn-104" vertex="1">
          <mxGeometry y="26" width="400" height="34" as="geometry" />
        </mxCell>
        <mxCell id="NNAgDV5kl5tZtwMsC2Bn-106" value="" style="line;html=1;strokeWidth=1;align=left;verticalAlign=middle;spacingTop=-1;spacingLeft=3;spacingRight=3;rotatable=0;labelPosition=right;points=[];portConstraint=eastwest;fillColor=#dae8fc;strokeColor=#6c8ebf;" parent="NNAgDV5kl5tZtwMsC2Bn-104" vertex="1">
          <mxGeometry y="60" width="400" height="8" as="geometry" />
        </mxCell>
        <mxCell id="NNAgDV5kl5tZtwMsC2Bn-107" value="ArrayList&lt;ArrivalRoute&gt; requestRealtimeBusArrivalInfo(nodeId)" style="text;align=left;verticalAlign=top;spacingLeft=4;spacingRight=4;overflow=hidden;rotatable=0;points=[[0,0.5],[1,0.5]];portConstraint=eastwest;rounded=0;shadow=0;html=0;" parent="NNAgDV5kl5tZtwMsC2Bn-104" vertex="1">
          <mxGeometry y="68" width="400" height="26" as="geometry" />
        </mxCell>
        <mxCell id="NNAgDV5kl5tZtwMsC2Bn-108" value="ArrayList&lt;ArrivalRoute&gt; requestRealtimeSpecificBusLocationInfo&#xa;                                                                                        (nodeId, routeId)" style="text;align=left;verticalAlign=top;spacingLeft=4;spacingRight=4;overflow=hidden;rotatable=0;points=[[0,0.5],[1,0.5]];portConstraint=eastwest;rounded=0;shadow=0;html=0;" parent="NNAgDV5kl5tZtwMsC2Bn-104" vertex="1">
          <mxGeometry y="94" width="400" height="34" as="geometry" />
        </mxCell>
        <mxCell id="0v5wqwy9z-cO2fE_teIm-24" value="ArrayList&lt;PassingNode&gt; requestRealtimeBusLocationInfo(nodeId)" style="text;align=left;verticalAlign=top;spacingLeft=4;spacingRight=4;overflow=hidden;rotatable=0;points=[[0,0.5],[1,0.5]];portConstraint=eastwest;rounded=0;shadow=0;html=0;" parent="NNAgDV5kl5tZtwMsC2Bn-104" vertex="1">
          <mxGeometry y="128" width="400" height="26" as="geometry" />
        </mxCell>
        <mxCell id="0v5wqwy9z-cO2fE_teIm-31" value="ArrayList&lt;Node&gt; requestArroundNodeInfo(longitude, latitude)" style="text;align=left;verticalAlign=top;spacingLeft=4;spacingRight=4;overflow=hidden;rotatable=0;points=[[0,0.5],[1,0.5]];portConstraint=eastwest;rounded=0;shadow=0;html=0;fontStyle=0;fontColor=default;" parent="NNAgDV5kl5tZtwMsC2Bn-104" vertex="1">
          <mxGeometry y="154" width="400" height="26" as="geometry" />
        </mxCell>
        <mxCell id="0v5wqwy9z-cO2fE_teIm-25" value="ArrayList&lt;ArrivalRoute&gt; filterKneelingBus(busArrivalInfoList)" style="text;align=left;verticalAlign=top;spacingLeft=4;spacingRight=4;overflow=hidden;rotatable=0;points=[[0,0.5],[1,0.5]];portConstraint=eastwest;rounded=0;shadow=0;html=0;fontColor=#0000FF;" parent="NNAgDV5kl5tZtwMsC2Bn-104" vertex="1">
          <mxGeometry y="180" width="400" height="26" as="geometry" />
        </mxCell>
        <mxCell id="X7Wm0wWlR6N1wWY1FZSC-50" value="ArrayList&lt;ArrivalRoute&gt; filterKneelingBus(busLocationInfoList)" style="text;align=left;verticalAlign=top;spacingLeft=4;spacingRight=4;overflow=hidden;rotatable=0;points=[[0,0.5],[1,0.5]];portConstraint=eastwest;rounded=0;shadow=0;html=0;fontColor=#0000FF;" parent="NNAgDV5kl5tZtwMsC2Bn-104" vertex="1">
          <mxGeometry y="206" width="400" height="26" as="geometry" />
        </mxCell>
        <mxCell id="NNAgDV5kl5tZtwMsC2Bn-113" value="KneelingBusService" style="swimlane;fontStyle=2;align=center;verticalAlign=top;childLayout=stackLayout;horizontal=1;startSize=26;horizontalStack=0;resizeParent=1;resizeLast=0;collapsible=1;marginBottom=0;rounded=0;shadow=0;strokeWidth=1;fillColor=#dae8fc;strokeColor=#6c8ebf;" parent="WIyWlLk6GJQsqaUBKTNV-1" vertex="1">
          <mxGeometry x="480" y="1200" width="400" height="80" as="geometry">
            <mxRectangle x="220" y="120" width="160" height="26" as="alternateBounds" />
          </mxGeometry>
        </mxCell>
        <mxCell id="NNAgDV5kl5tZtwMsC2Bn-114" value=" " style="text;align=left;verticalAlign=top;spacingLeft=4;spacingRight=4;overflow=hidden;rotatable=0;points=[[0,0.5],[1,0.5]];portConstraint=eastwest;rounded=0;shadow=0;html=0;" parent="NNAgDV5kl5tZtwMsC2Bn-113" vertex="1">
          <mxGeometry y="26" width="400" height="14" as="geometry" />
        </mxCell>
        <mxCell id="NNAgDV5kl5tZtwMsC2Bn-115" value="" style="line;html=1;strokeWidth=1;align=left;verticalAlign=middle;spacingTop=-1;spacingLeft=3;spacingRight=3;rotatable=0;labelPosition=right;points=[];portConstraint=eastwest;fillColor=#dae8fc;strokeColor=#6c8ebf;" parent="NNAgDV5kl5tZtwMsC2Bn-113" vertex="1">
          <mxGeometry y="40" width="400" height="8" as="geometry" />
        </mxCell>
        <mxCell id="NNAgDV5kl5tZtwMsC2Bn-116" value="Boolean isKneelingBus(busNo)" style="text;align=left;verticalAlign=top;spacingLeft=4;spacingRight=4;overflow=hidden;rotatable=0;points=[[0,0.5],[1,0.5]];portConstraint=eastwest;rounded=0;shadow=0;html=0;" parent="NNAgDV5kl5tZtwMsC2Bn-113" vertex="1">
          <mxGeometry y="48" width="400" height="26" as="geometry" />
        </mxCell>
        <mxCell id="NNAgDV5kl5tZtwMsC2Bn-118" value="KneelingBusRepository" style="swimlane;fontStyle=2;align=center;verticalAlign=top;childLayout=stackLayout;horizontal=1;startSize=26;horizontalStack=0;resizeParent=1;resizeLast=0;collapsible=1;marginBottom=0;rounded=0;shadow=0;strokeWidth=1;fillColor=#d5e8d4;strokeColor=#82b366;" parent="WIyWlLk6GJQsqaUBKTNV-1" vertex="1">
          <mxGeometry x="550" y="1290" width="260" height="80" as="geometry">
            <mxRectangle x="220" y="120" width="160" height="26" as="alternateBounds" />
          </mxGeometry>
        </mxCell>
        <mxCell id="NNAgDV5kl5tZtwMsC2Bn-119" value=" " style="text;align=left;verticalAlign=top;spacingLeft=4;spacingRight=4;overflow=hidden;rotatable=0;points=[[0,0.5],[1,0.5]];portConstraint=eastwest;rounded=0;shadow=0;html=0;" parent="NNAgDV5kl5tZtwMsC2Bn-118" vertex="1">
          <mxGeometry y="26" width="260" height="14" as="geometry" />
        </mxCell>
        <mxCell id="NNAgDV5kl5tZtwMsC2Bn-120" value="" style="line;html=1;strokeWidth=1;align=left;verticalAlign=middle;spacingTop=-1;spacingLeft=3;spacingRight=3;rotatable=0;labelPosition=right;points=[];portConstraint=eastwest;fillColor=#d5e8d4;strokeColor=#82b366;" parent="NNAgDV5kl5tZtwMsC2Bn-118" vertex="1">
          <mxGeometry y="40" width="260" height="8" as="geometry" />
        </mxCell>
        <mxCell id="NNAgDV5kl5tZtwMsC2Bn-121" value="Optional&lt;KneelingBus&gt; findByBusNo(busNo)" style="text;align=left;verticalAlign=top;spacingLeft=4;spacingRight=4;overflow=hidden;rotatable=0;points=[[0,0.5],[1,0.5]];portConstraint=eastwest;rounded=0;shadow=0;html=0;" parent="NNAgDV5kl5tZtwMsC2Bn-118" vertex="1">
          <mxGeometry y="48" width="260" height="26" as="geometry" />
        </mxCell>
        <mxCell id="0v5wqwy9z-cO2fE_teIm-5" value="" style="endArrow=open;shadow=0;strokeWidth=1;rounded=0;endFill=1;edgeStyle=elbowEdgeStyle;entryX=0;entryY=0.5;entryDx=0;entryDy=0;exitX=1.006;exitY=0.095;exitDx=0;exitDy=0;exitPerimeter=0;" parent="WIyWlLk6GJQsqaUBKTNV-1" source="NNAgDV5kl5tZtwMsC2Bn-34" target="NNAgDV5kl5tZtwMsC2Bn-52" edge="1">
          <mxGeometry x="0.5" y="41" relative="1" as="geometry">
            <mxPoint x="400" y="825" as="sourcePoint" />
            <mxPoint x="321" y="914" as="targetPoint" />
            <mxPoint x="-40" y="32" as="offset" />
            <Array as="points">
              <mxPoint x="890" y="390" />
              <mxPoint x="890" y="410" />
              <mxPoint x="890" y="370" />
            </Array>
          </mxGeometry>
        </mxCell>
        <mxCell id="0v5wqwy9z-cO2fE_teIm-6" value="*" style="resizable=0;align=right;verticalAlign=bottom;labelBackgroundColor=none;fontSize=12;" parent="0v5wqwy9z-cO2fE_teIm-5" connectable="0" vertex="1">
          <mxGeometry x="1" relative="1" as="geometry">
            <mxPoint x="-3" y="2" as="offset" />
          </mxGeometry>
        </mxCell>
        <mxCell id="0v5wqwy9z-cO2fE_teIm-7" value="contains" style="text;html=1;resizable=0;points=[];;align=center;verticalAlign=middle;labelBackgroundColor=none;rounded=0;shadow=0;strokeWidth=1;fontSize=12;" parent="0v5wqwy9z-cO2fE_teIm-5" vertex="1" connectable="0">
          <mxGeometry x="0.5" y="49" relative="1" as="geometry">
            <mxPoint x="19" y="37" as="offset" />
          </mxGeometry>
        </mxCell>
        <mxCell id="0v5wqwy9z-cO2fE_teIm-14" value="NodeRepository" style="swimlane;fontStyle=2;align=center;verticalAlign=top;childLayout=stackLayout;horizontal=1;startSize=26;horizontalStack=0;resizeParent=1;resizeLast=0;collapsible=1;marginBottom=0;rounded=0;shadow=0;strokeWidth=1;fillColor=#d5e8d4;strokeColor=#82b366;" parent="WIyWlLk6GJQsqaUBKTNV-1" vertex="1">
          <mxGeometry x="110" y="1070" width="260" height="160" as="geometry">
            <mxRectangle x="220" y="120" width="160" height="26" as="alternateBounds" />
          </mxGeometry>
        </mxCell>
        <mxCell id="0v5wqwy9z-cO2fE_teIm-15" value=" " style="text;align=left;verticalAlign=top;spacingLeft=4;spacingRight=4;overflow=hidden;rotatable=0;points=[[0,0.5],[1,0.5]];portConstraint=eastwest;rounded=0;shadow=0;html=0;" parent="0v5wqwy9z-cO2fE_teIm-14" vertex="1">
          <mxGeometry y="26" width="260" height="14" as="geometry" />
        </mxCell>
        <mxCell id="0v5wqwy9z-cO2fE_teIm-16" value="" style="line;html=1;strokeWidth=1;align=left;verticalAlign=middle;spacingTop=-1;spacingLeft=3;spacingRight=3;rotatable=0;labelPosition=right;points=[];portConstraint=eastwest;fillColor=#d5e8d4;strokeColor=#82b366;" parent="0v5wqwy9z-cO2fE_teIm-14" vertex="1">
          <mxGeometry y="40" width="260" height="8" as="geometry" />
        </mxCell>
        <mxCell id="0v5wqwy9z-cO2fE_teIm-17" value="Optional&lt;Node&gt; findById(nodeId)" style="text;align=left;verticalAlign=top;spacingLeft=4;spacingRight=4;overflow=hidden;rotatable=0;points=[[0,0.5],[1,0.5]];portConstraint=eastwest;rounded=0;shadow=0;html=0;" parent="0v5wqwy9z-cO2fE_teIm-14" vertex="1">
          <mxGeometry y="48" width="260" height="26" as="geometry" />
        </mxCell>
        <mxCell id="0v5wqwy9z-cO2fE_teIm-18" value="List&lt;Node&gt; findByNameContaining(nodeName)" style="text;align=left;verticalAlign=top;spacingLeft=4;spacingRight=-4;overflow=hidden;rotatable=0;points=[[0,0.5],[1,0.5]];portConstraint=eastwest;rounded=0;shadow=0;html=0;spacingBottom=0;fontSize=12;" parent="0v5wqwy9z-cO2fE_teIm-14" vertex="1">
          <mxGeometry y="74" width="260" height="26" as="geometry" />
        </mxCell>
        <mxCell id="q1hTq-5MQLfCPgQxP5bT-0" value="Optional&lt;Node&gt; findByNo(nodeNo)" style="text;align=left;verticalAlign=top;spacingLeft=4;spacingRight=4;overflow=hidden;rotatable=0;points=[[0,0.5],[1,0.5]];portConstraint=eastwest;rounded=0;shadow=0;html=0;fontColor=default;fontStyle=0;" parent="0v5wqwy9z-cO2fE_teIm-14" vertex="1">
          <mxGeometry y="100" width="260" height="26" as="geometry" />
        </mxCell>
        <mxCell id="0v5wqwy9z-cO2fE_teIm-28" value="Optional&lt;Node&gt; findByNaverId(naverNodeId)" style="text;align=left;verticalAlign=top;spacingLeft=4;spacingRight=4;overflow=hidden;rotatable=0;points=[[0,0.5],[1,0.5]];portConstraint=eastwest;rounded=0;shadow=0;html=0;fontColor=default;fontStyle=0;" parent="0v5wqwy9z-cO2fE_teIm-14" vertex="1">
          <mxGeometry y="126" width="260" height="26" as="geometry" />
        </mxCell>
        <mxCell id="0v5wqwy9z-cO2fE_teIm-19" value="NaverService" style="swimlane;fontStyle=2;align=center;verticalAlign=top;childLayout=stackLayout;horizontal=1;startSize=26;horizontalStack=0;resizeParent=1;resizeLast=0;collapsible=1;marginBottom=0;rounded=0;shadow=0;strokeWidth=1;fillColor=#dae8fc;strokeColor=#6c8ebf;" parent="WIyWlLk6GJQsqaUBKTNV-1" vertex="1">
          <mxGeometry x="920" y="1260" width="400" height="120" as="geometry">
            <mxRectangle x="220" y="120" width="160" height="26" as="alternateBounds" />
          </mxGeometry>
        </mxCell>
        <mxCell id="0v5wqwy9z-cO2fE_teIm-20" value=" " style="text;align=left;verticalAlign=top;spacingLeft=4;spacingRight=4;overflow=hidden;rotatable=0;points=[[0,0.5],[1,0.5]];portConstraint=eastwest;rounded=0;shadow=0;html=0;" parent="0v5wqwy9z-cO2fE_teIm-19" vertex="1">
          <mxGeometry y="26" width="400" height="14" as="geometry" />
        </mxCell>
        <mxCell id="0v5wqwy9z-cO2fE_teIm-21" value="" style="line;html=1;strokeWidth=1;align=left;verticalAlign=middle;spacingTop=-1;spacingLeft=3;spacingRight=3;rotatable=0;labelPosition=right;points=[];portConstraint=eastwest;fillColor=#dae8fc;strokeColor=#6c8ebf;" parent="0v5wqwy9z-cO2fE_teIm-19" vertex="1">
          <mxGeometry y="40" width="400" height="8" as="geometry" />
        </mxCell>
        <mxCell id="0v5wqwy9z-cO2fE_teIm-22" value="ArrayList&lt;Path&gt; getTransportationInfo(departureLongitude, &#xa;                                  departureLatitude, arrivalLongitude, arrivalLatitude)" style="text;align=left;verticalAlign=top;spacingLeft=4;spacingRight=4;overflow=hidden;rotatable=0;points=[[0,0.5],[1,0.5]];portConstraint=eastwest;rounded=0;shadow=0;html=0;fontStyle=0;fontColor=#000000;" parent="0v5wqwy9z-cO2fE_teIm-19" vertex="1">
          <mxGeometry y="48" width="400" height="40" as="geometry" />
        </mxCell>
        <mxCell id="q1hTq-5MQLfCPgQxP5bT-2" value="ArrayList&lt;Path&gt; filterPath(arrivalRouteList)" style="text;align=left;verticalAlign=top;spacingLeft=4;spacingRight=4;overflow=hidden;rotatable=0;points=[[0,0.5],[1,0.5]];portConstraint=eastwest;rounded=0;shadow=0;html=0;fontStyle=0;fontColor=#000000;" parent="0v5wqwy9z-cO2fE_teIm-19" vertex="1">
          <mxGeometry y="88" width="400" height="30" as="geometry" />
        </mxCell>
        <mxCell id="q1hTq-5MQLfCPgQxP5bT-3" value="SearchedRoute" style="swimlane;fontStyle=2;align=center;verticalAlign=top;childLayout=stackLayout;horizontal=1;startSize=26;horizontalStack=0;resizeParent=1;resizeLast=0;collapsible=1;marginBottom=0;rounded=0;shadow=0;strokeWidth=1;fillColor=#eeeeee;strokeColor=#36393d;" parent="WIyWlLk6GJQsqaUBKTNV-1" vertex="1">
          <mxGeometry x="720" y="260" width="160" height="102" as="geometry">
            <mxRectangle x="220" y="120" width="160" height="26" as="alternateBounds" />
          </mxGeometry>
        </mxCell>
        <mxCell id="q1hTq-5MQLfCPgQxP5bT-6" value="departure (String)" style="text;align=left;verticalAlign=top;spacingLeft=4;spacingRight=4;overflow=hidden;rotatable=0;points=[[0,0.5],[1,0.5]];portConstraint=eastwest;rounded=0;shadow=0;html=0;" parent="q1hTq-5MQLfCPgQxP5bT-3" vertex="1">
          <mxGeometry y="26" width="160" height="26" as="geometry" />
        </mxCell>
        <mxCell id="q1hTq-5MQLfCPgQxP5bT-8" value="arrival (String)" style="text;align=left;verticalAlign=top;spacingLeft=4;spacingRight=4;overflow=hidden;rotatable=0;points=[[0,0.5],[1,0.5]];portConstraint=eastwest;rounded=0;shadow=0;html=0;" parent="q1hTq-5MQLfCPgQxP5bT-3" vertex="1">
          <mxGeometry y="52" width="160" height="26" as="geometry" />
        </mxCell>
        <mxCell id="q1hTq-5MQLfCPgQxP5bT-7" value="" style="line;html=1;strokeWidth=1;align=left;verticalAlign=middle;spacingTop=-1;spacingLeft=3;spacingRight=3;rotatable=0;labelPosition=right;points=[];portConstraint=eastwest;fillColor=#eeeeee;strokeColor=#36393d;" parent="q1hTq-5MQLfCPgQxP5bT-3" vertex="1">
          <mxGeometry y="78" width="160" height="8" as="geometry" />
        </mxCell>
        <mxCell id="X7Wm0wWlR6N1wWY1FZSC-0" value="NodeBase" style="swimlane;fontStyle=2;align=center;verticalAlign=top;childLayout=stackLayout;horizontal=1;startSize=26;horizontalStack=0;resizeParent=1;resizeLast=0;collapsible=1;marginBottom=0;rounded=0;shadow=0;strokeWidth=1;fillColor=#dae8fc;strokeColor=#6c8ebf;" parent="WIyWlLk6GJQsqaUBKTNV-1" vertex="1">
          <mxGeometry x="280" y="120" width="160" height="132" as="geometry">
            <mxRectangle x="220" y="120" width="160" height="26" as="alternateBounds" />
          </mxGeometry>
        </mxCell>
        <mxCell id="X7Wm0wWlR6N1wWY1FZSC-1" value="id (String)" style="text;align=left;verticalAlign=top;spacingLeft=4;spacingRight=4;overflow=hidden;rotatable=0;points=[[0,0.5],[1,0.5]];portConstraint=eastwest;" parent="X7Wm0wWlR6N1wWY1FZSC-0" vertex="1">
          <mxGeometry y="26" width="160" height="26" as="geometry" />
        </mxCell>
        <mxCell id="X7Wm0wWlR6N1wWY1FZSC-2" value="name (String)" style="text;align=left;verticalAlign=top;spacingLeft=4;spacingRight=4;overflow=hidden;rotatable=0;points=[[0,0.5],[1,0.5]];portConstraint=eastwest;rounded=0;shadow=0;html=0;" parent="X7Wm0wWlR6N1wWY1FZSC-0" vertex="1">
          <mxGeometry y="52" width="160" height="26" as="geometry" />
        </mxCell>
        <mxCell id="X7Wm0wWlR6N1wWY1FZSC-3" value="no (String)" style="text;align=left;verticalAlign=top;spacingLeft=4;spacingRight=4;overflow=hidden;rotatable=0;points=[[0,0.5],[1,0.5]];portConstraint=eastwest;rounded=0;shadow=0;html=0;" parent="X7Wm0wWlR6N1wWY1FZSC-0" vertex="1">
          <mxGeometry y="78" width="160" height="26" as="geometry" />
        </mxCell>
        <mxCell id="X7Wm0wWlR6N1wWY1FZSC-6" value="" style="line;html=1;strokeWidth=1;align=left;verticalAlign=middle;spacingTop=-1;spacingLeft=3;spacingRight=3;rotatable=0;labelPosition=right;points=[];portConstraint=eastwest;fillColor=#dae8fc;strokeColor=#6c8ebf;" parent="X7Wm0wWlR6N1wWY1FZSC-0" vertex="1">
          <mxGeometry y="104" width="160" height="8" as="geometry" />
        </mxCell>
        <mxCell id="X7Wm0wWlR6N1wWY1FZSC-7" value="RouteBase" style="swimlane;fontStyle=2;align=center;verticalAlign=top;childLayout=stackLayout;horizontal=1;startSize=26;horizontalStack=0;resizeParent=1;resizeLast=0;collapsible=1;marginBottom=0;rounded=0;shadow=0;strokeWidth=1;fillColor=#dae8fc;strokeColor=#6c8ebf;" parent="WIyWlLk6GJQsqaUBKTNV-1" vertex="1">
          <mxGeometry x="720" y="120" width="160" height="100" as="geometry">
            <mxRectangle x="220" y="120" width="160" height="26" as="alternateBounds" />
          </mxGeometry>
        </mxCell>
        <mxCell id="X7Wm0wWlR6N1wWY1FZSC-8" value="id (String)" style="text;align=left;verticalAlign=top;spacingLeft=4;spacingRight=4;overflow=hidden;rotatable=0;points=[[0,0.5],[1,0.5]];portConstraint=eastwest;" parent="X7Wm0wWlR6N1wWY1FZSC-7" vertex="1">
          <mxGeometry y="26" width="160" height="26" as="geometry" />
        </mxCell>
        <mxCell id="X7Wm0wWlR6N1wWY1FZSC-9" value="no (String)" style="text;align=left;verticalAlign=top;spacingLeft=4;spacingRight=4;overflow=hidden;rotatable=0;points=[[0,0.5],[1,0.5]];portConstraint=eastwest;rounded=0;shadow=0;html=0;" parent="X7Wm0wWlR6N1wWY1FZSC-7" vertex="1">
          <mxGeometry y="52" width="160" height="26" as="geometry" />
        </mxCell>
        <mxCell id="X7Wm0wWlR6N1wWY1FZSC-11" value="" style="line;html=1;strokeWidth=1;align=left;verticalAlign=middle;spacingTop=-1;spacingLeft=3;spacingRight=3;rotatable=0;labelPosition=right;points=[];portConstraint=eastwest;fillColor=#dae8fc;strokeColor=#6c8ebf;" parent="X7Wm0wWlR6N1wWY1FZSC-7" vertex="1">
          <mxGeometry y="78" width="160" height="8" as="geometry" />
        </mxCell>
        <mxCell id="X7Wm0wWlR6N1wWY1FZSC-13" value="" style="endArrow=block;endSize=10;endFill=0;shadow=0;strokeWidth=1;rounded=0;edgeStyle=elbowEdgeStyle;elbow=vertical;exitX=0.5;exitY=0;exitDx=0;exitDy=0;entryX=0.25;entryY=1;entryDx=0;entryDy=0;" parent="WIyWlLk6GJQsqaUBKTNV-1" source="NNAgDV5kl5tZtwMsC2Bn-0" target="X7Wm0wWlR6N1wWY1FZSC-0" edge="1">
          <mxGeometry width="160" relative="1" as="geometry">
            <mxPoint x="650.17" y="300" as="sourcePoint" />
            <mxPoint x="520.17" y="250" as="targetPoint" />
            <Array as="points">
              <mxPoint x="300" y="280" />
            </Array>
          </mxGeometry>
        </mxCell>
        <mxCell id="X7Wm0wWlR6N1wWY1FZSC-14" value="" style="endArrow=block;endSize=10;endFill=0;shadow=0;strokeWidth=1;rounded=0;elbow=vertical;exitX=0.5;exitY=0;exitDx=0;exitDy=0;entryX=0.25;entryY=1;entryDx=0;entryDy=0;edgeStyle=orthogonalEdgeStyle;" parent="WIyWlLk6GJQsqaUBKTNV-1" source="zkfFHV4jXpPFQw0GAbJ--0" target="X7Wm0wWlR6N1wWY1FZSC-7" edge="1">
          <mxGeometry width="160" relative="1" as="geometry">
            <mxPoint x="530" y="330" as="sourcePoint" />
            <mxPoint x="580" y="262" as="targetPoint" />
            <Array as="points">
              <mxPoint x="620" y="250" />
              <mxPoint x="760" y="250" />
            </Array>
          </mxGeometry>
        </mxCell>
        <mxCell id="X7Wm0wWlR6N1wWY1FZSC-17" value="" style="endArrow=open;shadow=0;strokeWidth=1;rounded=0;endFill=1;entryX=0.5;entryY=1;entryDx=0;entryDy=0;exitX=0.5;exitY=0;exitDx=0;exitDy=0;" parent="WIyWlLk6GJQsqaUBKTNV-1" source="NNAgDV5kl5tZtwMsC2Bn-58" target="zkfFHV4jXpPFQw0GAbJ--6" edge="1">
          <mxGeometry relative="1" as="geometry">
            <mxPoint x="280" y="340" as="sourcePoint" />
            <mxPoint x="380" y="355" as="targetPoint" />
          </mxGeometry>
        </mxCell>
        <mxCell id="X7Wm0wWlR6N1wWY1FZSC-18" value="*" style="resizable=0;align=right;verticalAlign=bottom;labelBackgroundColor=none;fontSize=12;" parent="X7Wm0wWlR6N1wWY1FZSC-17" connectable="0" vertex="1">
          <mxGeometry x="1" relative="1" as="geometry">
            <mxPoint x="-5" y="21" as="offset" />
          </mxGeometry>
        </mxCell>
        <mxCell id="X7Wm0wWlR6N1wWY1FZSC-19" value="contains" style="text;html=1;resizable=0;points=[];;align=center;verticalAlign=middle;labelBackgroundColor=none;rounded=0;shadow=0;strokeWidth=1;fontSize=12;" parent="X7Wm0wWlR6N1wWY1FZSC-17" vertex="1" connectable="0">
          <mxGeometry x="0.5" y="49" relative="1" as="geometry">
            <mxPoint x="22" y="20" as="offset" />
          </mxGeometry>
        </mxCell>
        <mxCell id="X7Wm0wWlR6N1wWY1FZSC-23" value="" style="endArrow=block;endSize=10;endFill=0;shadow=0;strokeWidth=1;rounded=0;elbow=vertical;exitX=0.5;exitY=0;exitDx=0;exitDy=0;entryX=0.5;entryY=1;entryDx=0;entryDy=0;" parent="WIyWlLk6GJQsqaUBKTNV-1" source="q1hTq-5MQLfCPgQxP5bT-3" target="X7Wm0wWlR6N1wWY1FZSC-7" edge="1">
          <mxGeometry width="160" relative="1" as="geometry">
            <mxPoint x="630" y="270" as="sourcePoint" />
            <mxPoint x="790" y="230" as="targetPoint" />
          </mxGeometry>
        </mxCell>
        <mxCell id="X7Wm0wWlR6N1wWY1FZSC-24" value="" style="endArrow=block;endSize=10;endFill=0;shadow=0;strokeWidth=1;rounded=0;elbow=vertical;entryX=0.75;entryY=1;entryDx=0;entryDy=0;edgeStyle=orthogonalEdgeStyle;exitX=0.5;exitY=0;exitDx=0;exitDy=0;" parent="WIyWlLk6GJQsqaUBKTNV-1" source="NNAgDV5kl5tZtwMsC2Bn-48" target="X7Wm0wWlR6N1wWY1FZSC-7" edge="1">
          <mxGeometry width="160" relative="1" as="geometry">
            <mxPoint x="950" y="260" as="sourcePoint" />
            <mxPoint x="790" y="230" as="targetPoint" />
            <Array as="points">
              <mxPoint x="980" y="250" />
              <mxPoint x="840" y="250" />
            </Array>
          </mxGeometry>
        </mxCell>
        <mxCell id="X7Wm0wWlR6N1wWY1FZSC-25" value="" style="endArrow=open;shadow=0;strokeWidth=1;rounded=0;endFill=1;entryX=0.5;entryY=1;entryDx=0;entryDy=0;exitX=0.5;exitY=0;exitDx=0;exitDy=0;" parent="WIyWlLk6GJQsqaUBKTNV-1" source="NNAgDV5kl5tZtwMsC2Bn-44" target="NNAgDV5kl5tZtwMsC2Bn-48" edge="1">
          <mxGeometry x="0.5" y="41" relative="1" as="geometry">
            <mxPoint x="770" y="420" as="sourcePoint" />
            <mxPoint x="910" y="387" as="targetPoint" />
            <mxPoint x="-40" y="32" as="offset" />
          </mxGeometry>
        </mxCell>
        <mxCell id="X7Wm0wWlR6N1wWY1FZSC-26" value="*" style="resizable=0;align=right;verticalAlign=bottom;labelBackgroundColor=none;fontSize=12;" parent="X7Wm0wWlR6N1wWY1FZSC-25" connectable="0" vertex="1">
          <mxGeometry x="1" relative="1" as="geometry">
            <mxPoint x="-7" y="17" as="offset" />
          </mxGeometry>
        </mxCell>
        <mxCell id="X7Wm0wWlR6N1wWY1FZSC-27" value="contains" style="text;html=1;resizable=0;points=[];;align=center;verticalAlign=middle;labelBackgroundColor=none;rounded=0;shadow=0;strokeWidth=1;fontSize=12;" parent="X7Wm0wWlR6N1wWY1FZSC-25" vertex="1" connectable="0">
          <mxGeometry x="0.5" y="49" relative="1" as="geometry">
            <mxPoint x="22" y="19" as="offset" />
          </mxGeometry>
        </mxCell>
        <mxCell id="X7Wm0wWlR6N1wWY1FZSC-31" value="KIS Server - Design Class Diagram" style="text;html=1;strokeColor=none;fillColor=none;align=left;verticalAlign=middle;whiteSpace=wrap;rounded=0;fontStyle=1;fontSize=30;fontFamily=Georgia;" parent="WIyWlLk6GJQsqaUBKTNV-1" vertex="1">
          <mxGeometry x="40" y="40" width="570" height="30" as="geometry" />
        </mxCell>
        <mxCell id="X7Wm0wWlR6N1wWY1FZSC-37" value="Guideline" style="ellipse;shape=cloud;whiteSpace=wrap;html=1;fontFamily=Georgia;fontSize=12;fontStyle=1" parent="WIyWlLk6GJQsqaUBKTNV-1" vertex="1">
          <mxGeometry x="50" y="120" width="120" height="50" as="geometry" />
        </mxCell>
        <mxCell id="X7Wm0wWlR6N1wWY1FZSC-38" value="Entity" style="swimlane;fontStyle=2;align=center;verticalAlign=top;childLayout=stackLayout;horizontal=1;startSize=26;horizontalStack=0;resizeParent=1;resizeLast=0;collapsible=1;marginBottom=0;rounded=0;shadow=0;strokeWidth=1;fillColor=#f8cecc;strokeColor=#b85450;" parent="WIyWlLk6GJQsqaUBKTNV-1" vertex="1">
          <mxGeometry x="70" y="185" width="80" height="60" as="geometry">
            <mxRectangle x="340" y="380" width="170" height="26" as="alternateBounds" />
          </mxGeometry>
        </mxCell>
        <mxCell id="X7Wm0wWlR6N1wWY1FZSC-39" value=" " style="text;align=left;verticalAlign=top;spacingLeft=4;spacingRight=4;overflow=hidden;rotatable=0;points=[[0,0.5],[1,0.5]];portConstraint=eastwest;fontSize=5;" parent="X7Wm0wWlR6N1wWY1FZSC-38" vertex="1">
          <mxGeometry y="26" width="80" height="14" as="geometry" />
        </mxCell>
        <mxCell id="X7Wm0wWlR6N1wWY1FZSC-40" value="" style="line;html=1;strokeWidth=1;align=left;verticalAlign=middle;spacingTop=-1;spacingLeft=3;spacingRight=3;rotatable=0;labelPosition=right;points=[];portConstraint=eastwest;fillColor=#f8cecc;strokeColor=#b85450;" parent="X7Wm0wWlR6N1wWY1FZSC-38" vertex="1">
          <mxGeometry y="40" width="80" height="8" as="geometry" />
        </mxCell>
        <mxCell id="X7Wm0wWlR6N1wWY1FZSC-41" value="Base Class" style="swimlane;fontStyle=2;align=center;verticalAlign=top;childLayout=stackLayout;horizontal=1;startSize=26;horizontalStack=0;resizeParent=1;resizeLast=0;collapsible=1;marginBottom=0;rounded=0;shadow=0;strokeWidth=1;fillColor=#dae8fc;strokeColor=#6c8ebf;" parent="WIyWlLk6GJQsqaUBKTNV-1" vertex="1">
          <mxGeometry x="70" y="256" width="80" height="60" as="geometry">
            <mxRectangle x="340" y="380" width="170" height="26" as="alternateBounds" />
          </mxGeometry>
        </mxCell>
        <mxCell id="X7Wm0wWlR6N1wWY1FZSC-42" value=" " style="text;align=left;verticalAlign=top;spacingLeft=4;spacingRight=4;overflow=hidden;rotatable=0;points=[[0,0.5],[1,0.5]];portConstraint=eastwest;fontSize=5;" parent="X7Wm0wWlR6N1wWY1FZSC-41" vertex="1">
          <mxGeometry y="26" width="80" height="14" as="geometry" />
        </mxCell>
        <mxCell id="X7Wm0wWlR6N1wWY1FZSC-43" value="" style="line;html=1;strokeWidth=1;align=left;verticalAlign=middle;spacingTop=-1;spacingLeft=3;spacingRight=3;rotatable=0;labelPosition=right;points=[];portConstraint=eastwest;fillColor=#dae8fc;strokeColor=#6c8ebf;" parent="X7Wm0wWlR6N1wWY1FZSC-41" vertex="1">
          <mxGeometry y="40" width="80" height="8" as="geometry" />
        </mxCell>
        <mxCell id="X7Wm0wWlR6N1wWY1FZSC-45" value="Dto" style="swimlane;fontStyle=2;align=center;verticalAlign=top;childLayout=stackLayout;horizontal=1;startSize=26;horizontalStack=0;resizeParent=1;resizeLast=0;collapsible=1;marginBottom=0;rounded=0;shadow=0;strokeWidth=1;fillColor=#d5e8d4;strokeColor=#82b366;" parent="WIyWlLk6GJQsqaUBKTNV-1" vertex="1">
          <mxGeometry x="70" y="326" width="80" height="60" as="geometry">
            <mxRectangle x="340" y="380" width="170" height="26" as="alternateBounds" />
          </mxGeometry>
        </mxCell>
        <mxCell id="X7Wm0wWlR6N1wWY1FZSC-46" value=" " style="text;align=left;verticalAlign=top;spacingLeft=4;spacingRight=4;overflow=hidden;rotatable=0;points=[[0,0.5],[1,0.5]];portConstraint=eastwest;fontSize=5;" parent="X7Wm0wWlR6N1wWY1FZSC-45" vertex="1">
          <mxGeometry y="26" width="80" height="14" as="geometry" />
        </mxCell>
        <mxCell id="X7Wm0wWlR6N1wWY1FZSC-47" value="" style="line;html=1;strokeWidth=1;align=left;verticalAlign=middle;spacingTop=-1;spacingLeft=3;spacingRight=3;rotatable=0;labelPosition=right;points=[];portConstraint=eastwest;fillColor=#d5e8d4;strokeColor=#82b366;" parent="X7Wm0wWlR6N1wWY1FZSC-45" vertex="1">
          <mxGeometry y="40" width="80" height="8" as="geometry" />
        </mxCell>
        <mxCell id="X7Wm0wWlR6N1wWY1FZSC-56" value="TAGO_BusArrivalInfoRequest" style="swimlane;fontStyle=2;align=center;verticalAlign=top;childLayout=stackLayout;horizontal=1;startSize=26;horizontalStack=0;resizeParent=1;resizeLast=0;collapsible=1;marginBottom=0;rounded=0;shadow=0;strokeWidth=1;fillColor=#d5e8d4;strokeColor=#82b366;" parent="WIyWlLk6GJQsqaUBKTNV-1" vertex="1">
          <mxGeometry x="1120" y="120" width="240" height="150" as="geometry">
            <mxRectangle x="340" y="380" width="170" height="26" as="alternateBounds" />
          </mxGeometry>
        </mxCell>
        <mxCell id="X7Wm0wWlR6N1wWY1FZSC-57" value="serviceKey (String)" style="text;align=left;verticalAlign=top;spacingLeft=4;spacingRight=4;overflow=hidden;rotatable=0;points=[[0,0.5],[1,0.5]];portConstraint=eastwest;" parent="X7Wm0wWlR6N1wWY1FZSC-56" vertex="1">
          <mxGeometry y="26" width="240" height="26" as="geometry" />
        </mxCell>
        <mxCell id="X7Wm0wWlR6N1wWY1FZSC-58" value="cityCode (Integer)" style="text;align=left;verticalAlign=top;spacingLeft=4;spacingRight=4;overflow=hidden;rotatable=0;points=[[0,0.5],[1,0.5]];portConstraint=eastwest;" parent="X7Wm0wWlR6N1wWY1FZSC-56" vertex="1">
          <mxGeometry y="52" width="240" height="26" as="geometry" />
        </mxCell>
        <mxCell id="X7Wm0wWlR6N1wWY1FZSC-60" value="nodeId (String)" style="text;align=left;verticalAlign=top;spacingLeft=4;spacingRight=4;overflow=hidden;rotatable=0;points=[[0,0.5],[1,0.5]];portConstraint=eastwest;fontStyle=0" parent="X7Wm0wWlR6N1wWY1FZSC-56" vertex="1">
          <mxGeometry y="78" width="240" height="26" as="geometry" />
        </mxCell>
        <mxCell id="X7Wm0wWlR6N1wWY1FZSC-66" value="routeId (String)" style="text;align=left;verticalAlign=top;spacingLeft=4;spacingRight=4;overflow=hidden;rotatable=0;points=[[0,0.5],[1,0.5]];portConstraint=eastwest;fontStyle=0" parent="X7Wm0wWlR6N1wWY1FZSC-56" vertex="1">
          <mxGeometry y="104" width="240" height="26" as="geometry" />
        </mxCell>
        <mxCell id="X7Wm0wWlR6N1wWY1FZSC-59" value="" style="line;html=1;strokeWidth=1;align=left;verticalAlign=middle;spacingTop=-1;spacingLeft=3;spacingRight=3;rotatable=0;labelPosition=right;points=[];portConstraint=eastwest;fillColor=#d5e8d4;strokeColor=#82b366;" parent="X7Wm0wWlR6N1wWY1FZSC-56" vertex="1">
          <mxGeometry y="130" width="240" height="8" as="geometry" />
        </mxCell>
        <mxCell id="X7Wm0wWlR6N1wWY1FZSC-61" value="TAGO_BusArrivalInfoResponse" style="swimlane;fontStyle=2;align=center;verticalAlign=top;childLayout=stackLayout;horizontal=1;startSize=26;horizontalStack=0;resizeParent=1;resizeLast=0;collapsible=1;marginBottom=0;rounded=0;shadow=0;strokeWidth=1;fillColor=#d5e8d4;strokeColor=#82b366;" parent="WIyWlLk6GJQsqaUBKTNV-1" vertex="1">
          <mxGeometry x="1120" y="280" width="240" height="160" as="geometry">
            <mxRectangle x="340" y="380" width="170" height="26" as="alternateBounds" />
          </mxGeometry>
        </mxCell>
        <mxCell id="X7Wm0wWlR6N1wWY1FZSC-62" value="nomOfRows (Integer)" style="text;align=left;verticalAlign=top;spacingLeft=4;spacingRight=4;overflow=hidden;rotatable=0;points=[[0,0.5],[1,0.5]];portConstraint=eastwest;" parent="X7Wm0wWlR6N1wWY1FZSC-61" vertex="1">
          <mxGeometry y="26" width="240" height="26" as="geometry" />
        </mxCell>
        <mxCell id="X7Wm0wWlR6N1wWY1FZSC-63" value="pageNo (Integer)" style="text;align=left;verticalAlign=top;spacingLeft=4;spacingRight=4;overflow=hidden;rotatable=0;points=[[0,0.5],[1,0.5]];portConstraint=eastwest;" parent="X7Wm0wWlR6N1wWY1FZSC-61" vertex="1">
          <mxGeometry y="52" width="240" height="26" as="geometry" />
        </mxCell>
        <mxCell id="X7Wm0wWlR6N1wWY1FZSC-64" value="totalCount (String)" style="text;align=left;verticalAlign=top;spacingLeft=4;spacingRight=4;overflow=hidden;rotatable=0;points=[[0,0.5],[1,0.5]];portConstraint=eastwest;fontStyle=0" parent="X7Wm0wWlR6N1wWY1FZSC-61" vertex="1">
          <mxGeometry y="78" width="240" height="26" as="geometry" />
        </mxCell>
        <mxCell id="X7Wm0wWlR6N1wWY1FZSC-67" value="items (List&lt;TAGO_BusArrivalInfo&gt;)" style="text;align=left;verticalAlign=top;spacingLeft=4;spacingRight=4;overflow=hidden;rotatable=0;points=[[0,0.5],[1,0.5]];portConstraint=eastwest;fontStyle=0" parent="X7Wm0wWlR6N1wWY1FZSC-61" vertex="1">
          <mxGeometry y="104" width="240" height="26" as="geometry" />
        </mxCell>
        <mxCell id="X7Wm0wWlR6N1wWY1FZSC-65" value="" style="line;html=1;strokeWidth=1;align=left;verticalAlign=middle;spacingTop=-1;spacingLeft=3;spacingRight=3;rotatable=0;labelPosition=right;points=[];portConstraint=eastwest;fillColor=#d5e8d4;strokeColor=#82b366;" parent="X7Wm0wWlR6N1wWY1FZSC-61" vertex="1">
          <mxGeometry y="130" width="240" height="8" as="geometry" />
        </mxCell>
        <mxCell id="X7Wm0wWlR6N1wWY1FZSC-68" value="TAGO_BusArrivalInfo" style="swimlane;fontStyle=2;align=center;verticalAlign=top;childLayout=stackLayout;horizontal=1;startSize=26;horizontalStack=0;resizeParent=1;resizeLast=0;collapsible=1;marginBottom=0;rounded=0;shadow=0;strokeWidth=1;fillColor=#d5e8d4;strokeColor=#82b366;" parent="WIyWlLk6GJQsqaUBKTNV-1" vertex="1">
          <mxGeometry x="1120" y="480" width="240" height="260" as="geometry">
            <mxRectangle x="340" y="380" width="170" height="26" as="alternateBounds" />
          </mxGeometry>
        </mxCell>
        <mxCell id="X7Wm0wWlR6N1wWY1FZSC-69" value="nodeid (String)" style="text;align=left;verticalAlign=top;spacingLeft=4;spacingRight=4;overflow=hidden;rotatable=0;points=[[0,0.5],[1,0.5]];portConstraint=eastwest;" parent="X7Wm0wWlR6N1wWY1FZSC-68" vertex="1">
          <mxGeometry y="26" width="240" height="26" as="geometry" />
        </mxCell>
        <mxCell id="X7Wm0wWlR6N1wWY1FZSC-70" value="nodenm (String)" style="text;align=left;verticalAlign=top;spacingLeft=4;spacingRight=4;overflow=hidden;rotatable=0;points=[[0,0.5],[1,0.5]];portConstraint=eastwest;" parent="X7Wm0wWlR6N1wWY1FZSC-68" vertex="1">
          <mxGeometry y="52" width="240" height="26" as="geometry" />
        </mxCell>
        <mxCell id="X7Wm0wWlR6N1wWY1FZSC-71" value="routeid (String)" style="text;align=left;verticalAlign=top;spacingLeft=4;spacingRight=4;overflow=hidden;rotatable=0;points=[[0,0.5],[1,0.5]];portConstraint=eastwest;fontStyle=0" parent="X7Wm0wWlR6N1wWY1FZSC-68" vertex="1">
          <mxGeometry y="78" width="240" height="26" as="geometry" />
        </mxCell>
        <mxCell id="X7Wm0wWlR6N1wWY1FZSC-72" value="routeno (String)" style="text;align=left;verticalAlign=top;spacingLeft=4;spacingRight=4;overflow=hidden;rotatable=0;points=[[0,0.5],[1,0.5]];portConstraint=eastwest;fontStyle=0" parent="X7Wm0wWlR6N1wWY1FZSC-68" vertex="1">
          <mxGeometry y="104" width="240" height="26" as="geometry" />
        </mxCell>
        <mxCell id="X7Wm0wWlR6N1wWY1FZSC-78" value="routetp (Integer)" style="text;align=left;verticalAlign=top;spacingLeft=4;spacingRight=4;overflow=hidden;rotatable=0;points=[[0,0.5],[1,0.5]];portConstraint=eastwest;fontStyle=0" parent="X7Wm0wWlR6N1wWY1FZSC-68" vertex="1">
          <mxGeometry y="130" width="240" height="26" as="geometry" />
        </mxCell>
        <mxCell id="X7Wm0wWlR6N1wWY1FZSC-79" value="arrprevstationcnt (Integer)" style="text;align=left;verticalAlign=top;spacingLeft=4;spacingRight=4;overflow=hidden;rotatable=0;points=[[0,0.5],[1,0.5]];portConstraint=eastwest;fontStyle=0" parent="X7Wm0wWlR6N1wWY1FZSC-68" vertex="1">
          <mxGeometry y="156" width="240" height="26" as="geometry" />
        </mxCell>
        <mxCell id="X7Wm0wWlR6N1wWY1FZSC-80" value="vehicletp (Integer)" style="text;align=left;verticalAlign=top;spacingLeft=4;spacingRight=4;overflow=hidden;rotatable=0;points=[[0,0.5],[1,0.5]];portConstraint=eastwest;fontStyle=0" parent="X7Wm0wWlR6N1wWY1FZSC-68" vertex="1">
          <mxGeometry y="182" width="240" height="26" as="geometry" />
        </mxCell>
        <mxCell id="X7Wm0wWlR6N1wWY1FZSC-81" value="arrtime (Integer)" style="text;align=left;verticalAlign=top;spacingLeft=4;spacingRight=4;overflow=hidden;rotatable=0;points=[[0,0.5],[1,0.5]];portConstraint=eastwest;fontStyle=0" parent="X7Wm0wWlR6N1wWY1FZSC-68" vertex="1">
          <mxGeometry y="208" width="240" height="26" as="geometry" />
        </mxCell>
        <mxCell id="X7Wm0wWlR6N1wWY1FZSC-73" value="" style="line;html=1;strokeWidth=1;align=left;verticalAlign=middle;spacingTop=-1;spacingLeft=3;spacingRight=3;rotatable=0;labelPosition=right;points=[];portConstraint=eastwest;fillColor=#d5e8d4;strokeColor=#82b366;" parent="X7Wm0wWlR6N1wWY1FZSC-68" vertex="1">
          <mxGeometry y="234" width="240" height="8" as="geometry" />
        </mxCell>
        <mxCell id="X7Wm0wWlR6N1wWY1FZSC-74" value="" style="endArrow=open;shadow=0;strokeWidth=1;rounded=0;endFill=1;entryX=0.5;entryY=0;entryDx=0;entryDy=0;exitX=0.5;exitY=1;exitDx=0;exitDy=0;" parent="WIyWlLk6GJQsqaUBKTNV-1" source="X7Wm0wWlR6N1wWY1FZSC-61" target="X7Wm0wWlR6N1wWY1FZSC-68" edge="1">
          <mxGeometry x="0.5" y="41" relative="1" as="geometry">
            <mxPoint x="980" y="440" as="sourcePoint" />
            <mxPoint x="980" y="400" as="targetPoint" />
            <mxPoint x="-40" y="32" as="offset" />
          </mxGeometry>
        </mxCell>
        <mxCell id="X7Wm0wWlR6N1wWY1FZSC-75" value="*" style="resizable=0;align=right;verticalAlign=bottom;labelBackgroundColor=none;fontSize=12;" parent="X7Wm0wWlR6N1wWY1FZSC-74" connectable="0" vertex="1">
          <mxGeometry x="1" relative="1" as="geometry">
            <mxPoint x="15" y="2" as="offset" />
          </mxGeometry>
        </mxCell>
        <mxCell id="X7Wm0wWlR6N1wWY1FZSC-76" value="contains" style="text;html=1;resizable=0;points=[];;align=center;verticalAlign=middle;labelBackgroundColor=none;rounded=0;shadow=0;strokeWidth=1;fontSize=12;" parent="X7Wm0wWlR6N1wWY1FZSC-74" vertex="1" connectable="0">
          <mxGeometry x="0.5" y="49" relative="1" as="geometry">
            <mxPoint x="-19" y="-20" as="offset" />
          </mxGeometry>
        </mxCell>
        <mxCell id="X7Wm0wWlR6N1wWY1FZSC-82" value="TAGO_BusLocationInfoRequest" style="swimlane;fontStyle=2;align=center;verticalAlign=top;childLayout=stackLayout;horizontal=1;startSize=26;horizontalStack=0;resizeParent=1;resizeLast=0;collapsible=1;marginBottom=0;rounded=0;shadow=0;strokeWidth=1;fillColor=#d5e8d4;strokeColor=#82b366;" parent="WIyWlLk6GJQsqaUBKTNV-1" vertex="1">
          <mxGeometry x="1380" y="120" width="240" height="130" as="geometry">
            <mxRectangle x="340" y="380" width="170" height="26" as="alternateBounds" />
          </mxGeometry>
        </mxCell>
        <mxCell id="X7Wm0wWlR6N1wWY1FZSC-83" value="serviceKey (String)" style="text;align=left;verticalAlign=top;spacingLeft=4;spacingRight=4;overflow=hidden;rotatable=0;points=[[0,0.5],[1,0.5]];portConstraint=eastwest;" parent="X7Wm0wWlR6N1wWY1FZSC-82" vertex="1">
          <mxGeometry y="26" width="240" height="26" as="geometry" />
        </mxCell>
        <mxCell id="X7Wm0wWlR6N1wWY1FZSC-84" value="cityCode (Integer)" style="text;align=left;verticalAlign=top;spacingLeft=4;spacingRight=4;overflow=hidden;rotatable=0;points=[[0,0.5],[1,0.5]];portConstraint=eastwest;" parent="X7Wm0wWlR6N1wWY1FZSC-82" vertex="1">
          <mxGeometry y="52" width="240" height="26" as="geometry" />
        </mxCell>
        <mxCell id="X7Wm0wWlR6N1wWY1FZSC-86" value="routeId (String)" style="text;align=left;verticalAlign=top;spacingLeft=4;spacingRight=4;overflow=hidden;rotatable=0;points=[[0,0.5],[1,0.5]];portConstraint=eastwest;fontStyle=0" parent="X7Wm0wWlR6N1wWY1FZSC-82" vertex="1">
          <mxGeometry y="78" width="240" height="26" as="geometry" />
        </mxCell>
        <mxCell id="X7Wm0wWlR6N1wWY1FZSC-87" value="" style="line;html=1;strokeWidth=1;align=left;verticalAlign=middle;spacingTop=-1;spacingLeft=3;spacingRight=3;rotatable=0;labelPosition=right;points=[];portConstraint=eastwest;fillColor=#d5e8d4;strokeColor=#82b366;" parent="X7Wm0wWlR6N1wWY1FZSC-82" vertex="1">
          <mxGeometry y="104" width="240" height="8" as="geometry" />
        </mxCell>
        <mxCell id="X7Wm0wWlR6N1wWY1FZSC-88" value="TAGO_BusLocationInfoResponse" style="swimlane;fontStyle=2;align=center;verticalAlign=top;childLayout=stackLayout;horizontal=1;startSize=26;horizontalStack=0;resizeParent=1;resizeLast=0;collapsible=1;marginBottom=0;rounded=0;shadow=0;strokeWidth=1;fillColor=#d5e8d4;strokeColor=#82b366;" parent="WIyWlLk6GJQsqaUBKTNV-1" vertex="1">
          <mxGeometry x="1380" y="280" width="240" height="160" as="geometry">
            <mxRectangle x="340" y="380" width="170" height="26" as="alternateBounds" />
          </mxGeometry>
        </mxCell>
        <mxCell id="X7Wm0wWlR6N1wWY1FZSC-89" value="nomOfRows (Integer)" style="text;align=left;verticalAlign=top;spacingLeft=4;spacingRight=4;overflow=hidden;rotatable=0;points=[[0,0.5],[1,0.5]];portConstraint=eastwest;" parent="X7Wm0wWlR6N1wWY1FZSC-88" vertex="1">
          <mxGeometry y="26" width="240" height="26" as="geometry" />
        </mxCell>
        <mxCell id="X7Wm0wWlR6N1wWY1FZSC-90" value="pageNo (Integer)" style="text;align=left;verticalAlign=top;spacingLeft=4;spacingRight=4;overflow=hidden;rotatable=0;points=[[0,0.5],[1,0.5]];portConstraint=eastwest;" parent="X7Wm0wWlR6N1wWY1FZSC-88" vertex="1">
          <mxGeometry y="52" width="240" height="26" as="geometry" />
        </mxCell>
        <mxCell id="X7Wm0wWlR6N1wWY1FZSC-91" value="totalCount (String)" style="text;align=left;verticalAlign=top;spacingLeft=4;spacingRight=4;overflow=hidden;rotatable=0;points=[[0,0.5],[1,0.5]];portConstraint=eastwest;fontStyle=0" parent="X7Wm0wWlR6N1wWY1FZSC-88" vertex="1">
          <mxGeometry y="78" width="240" height="26" as="geometry" />
        </mxCell>
        <mxCell id="X7Wm0wWlR6N1wWY1FZSC-92" value="items (List&lt;TAGO_BusLocationInfo&gt;)" style="text;align=left;verticalAlign=top;spacingLeft=4;spacingRight=4;overflow=hidden;rotatable=0;points=[[0,0.5],[1,0.5]];portConstraint=eastwest;fontStyle=0" parent="X7Wm0wWlR6N1wWY1FZSC-88" vertex="1">
          <mxGeometry y="104" width="240" height="26" as="geometry" />
        </mxCell>
        <mxCell id="X7Wm0wWlR6N1wWY1FZSC-93" value="" style="line;html=1;strokeWidth=1;align=left;verticalAlign=middle;spacingTop=-1;spacingLeft=3;spacingRight=3;rotatable=0;labelPosition=right;points=[];portConstraint=eastwest;fillColor=#d5e8d4;strokeColor=#82b366;" parent="X7Wm0wWlR6N1wWY1FZSC-88" vertex="1">
          <mxGeometry y="130" width="240" height="8" as="geometry" />
        </mxCell>
        <mxCell id="X7Wm0wWlR6N1wWY1FZSC-94" value="TAGO_BusLocationInfo" style="swimlane;fontStyle=2;align=center;verticalAlign=top;childLayout=stackLayout;horizontal=1;startSize=26;horizontalStack=0;resizeParent=1;resizeLast=0;collapsible=1;marginBottom=0;rounded=0;shadow=0;strokeWidth=1;fillColor=#d5e8d4;strokeColor=#82b366;" parent="WIyWlLk6GJQsqaUBKTNV-1" vertex="1">
          <mxGeometry x="1380" y="480" width="240" height="260" as="geometry">
            <mxRectangle x="340" y="380" width="170" height="26" as="alternateBounds" />
          </mxGeometry>
        </mxCell>
        <mxCell id="X7Wm0wWlR6N1wWY1FZSC-95" value="routenm (String)" style="text;align=left;verticalAlign=top;spacingLeft=4;spacingRight=4;overflow=hidden;rotatable=0;points=[[0,0.5],[1,0.5]];portConstraint=eastwest;" parent="X7Wm0wWlR6N1wWY1FZSC-94" vertex="1">
          <mxGeometry y="26" width="240" height="26" as="geometry" />
        </mxCell>
        <mxCell id="X7Wm0wWlR6N1wWY1FZSC-96" value="gpslati (Double)" style="text;align=left;verticalAlign=top;spacingLeft=4;spacingRight=4;overflow=hidden;rotatable=0;points=[[0,0.5],[1,0.5]];portConstraint=eastwest;" parent="X7Wm0wWlR6N1wWY1FZSC-94" vertex="1">
          <mxGeometry y="52" width="240" height="26" as="geometry" />
        </mxCell>
        <mxCell id="X7Wm0wWlR6N1wWY1FZSC-97" value="gpslong (Double)" style="text;align=left;verticalAlign=top;spacingLeft=4;spacingRight=4;overflow=hidden;rotatable=0;points=[[0,0.5],[1,0.5]];portConstraint=eastwest;fontStyle=0" parent="X7Wm0wWlR6N1wWY1FZSC-94" vertex="1">
          <mxGeometry y="78" width="240" height="26" as="geometry" />
        </mxCell>
        <mxCell id="X7Wm0wWlR6N1wWY1FZSC-98" value="nodeord (Integer)" style="text;align=left;verticalAlign=top;spacingLeft=4;spacingRight=4;overflow=hidden;rotatable=0;points=[[0,0.5],[1,0.5]];portConstraint=eastwest;fontStyle=0" parent="X7Wm0wWlR6N1wWY1FZSC-94" vertex="1">
          <mxGeometry y="104" width="240" height="26" as="geometry" />
        </mxCell>
        <mxCell id="X7Wm0wWlR6N1wWY1FZSC-99" value="nodenm (String)" style="text;align=left;verticalAlign=top;spacingLeft=4;spacingRight=4;overflow=hidden;rotatable=0;points=[[0,0.5],[1,0.5]];portConstraint=eastwest;fontStyle=0" parent="X7Wm0wWlR6N1wWY1FZSC-94" vertex="1">
          <mxGeometry y="130" width="240" height="26" as="geometry" />
        </mxCell>
        <mxCell id="X7Wm0wWlR6N1wWY1FZSC-100" value="nodeid (String)" style="text;align=left;verticalAlign=top;spacingLeft=4;spacingRight=4;overflow=hidden;rotatable=0;points=[[0,0.5],[1,0.5]];portConstraint=eastwest;fontStyle=0" parent="X7Wm0wWlR6N1wWY1FZSC-94" vertex="1">
          <mxGeometry y="156" width="240" height="26" as="geometry" />
        </mxCell>
        <mxCell id="X7Wm0wWlR6N1wWY1FZSC-101" value="routetp (String)" style="text;align=left;verticalAlign=top;spacingLeft=4;spacingRight=4;overflow=hidden;rotatable=0;points=[[0,0.5],[1,0.5]];portConstraint=eastwest;fontStyle=0" parent="X7Wm0wWlR6N1wWY1FZSC-94" vertex="1">
          <mxGeometry y="182" width="240" height="26" as="geometry" />
        </mxCell>
        <mxCell id="X7Wm0wWlR6N1wWY1FZSC-102" value="vehicleno (String)" style="text;align=left;verticalAlign=top;spacingLeft=4;spacingRight=4;overflow=hidden;rotatable=0;points=[[0,0.5],[1,0.5]];portConstraint=eastwest;fontStyle=0" parent="X7Wm0wWlR6N1wWY1FZSC-94" vertex="1">
          <mxGeometry y="208" width="240" height="26" as="geometry" />
        </mxCell>
        <mxCell id="X7Wm0wWlR6N1wWY1FZSC-103" value="" style="line;html=1;strokeWidth=1;align=left;verticalAlign=middle;spacingTop=-1;spacingLeft=3;spacingRight=3;rotatable=0;labelPosition=right;points=[];portConstraint=eastwest;fillColor=#d5e8d4;strokeColor=#82b366;" parent="X7Wm0wWlR6N1wWY1FZSC-94" vertex="1">
          <mxGeometry y="234" width="240" height="8" as="geometry" />
        </mxCell>
        <mxCell id="X7Wm0wWlR6N1wWY1FZSC-104" value="" style="endArrow=open;shadow=0;strokeWidth=1;rounded=0;endFill=1;exitX=0.5;exitY=1;exitDx=0;exitDy=0;" parent="WIyWlLk6GJQsqaUBKTNV-1" source="X7Wm0wWlR6N1wWY1FZSC-88" target="X7Wm0wWlR6N1wWY1FZSC-94" edge="1">
          <mxGeometry x="0.5" y="41" relative="1" as="geometry">
            <mxPoint x="1250" y="450" as="sourcePoint" />
            <mxPoint x="1250" y="490" as="targetPoint" />
            <mxPoint x="-40" y="32" as="offset" />
          </mxGeometry>
        </mxCell>
        <mxCell id="X7Wm0wWlR6N1wWY1FZSC-105" value="*" style="resizable=0;align=right;verticalAlign=bottom;labelBackgroundColor=none;fontSize=12;" parent="X7Wm0wWlR6N1wWY1FZSC-104" connectable="0" vertex="1">
          <mxGeometry x="1" relative="1" as="geometry">
            <mxPoint x="15" y="2" as="offset" />
          </mxGeometry>
        </mxCell>
        <mxCell id="X7Wm0wWlR6N1wWY1FZSC-106" value="contains" style="text;html=1;resizable=0;points=[];;align=center;verticalAlign=middle;labelBackgroundColor=none;rounded=0;shadow=0;strokeWidth=1;fontSize=12;" parent="X7Wm0wWlR6N1wWY1FZSC-104" vertex="1" connectable="0">
          <mxGeometry x="0.5" y="49" relative="1" as="geometry">
            <mxPoint x="-19" y="-20" as="offset" />
          </mxGeometry>
        </mxCell>
        <mxCell id="X7Wm0wWlR6N1wWY1FZSC-107" value="TAGO_AroundNodeInfoRequest" style="swimlane;fontStyle=2;align=center;verticalAlign=top;childLayout=stackLayout;horizontal=1;startSize=26;horizontalStack=0;resizeParent=1;resizeLast=0;collapsible=1;marginBottom=0;rounded=0;shadow=0;strokeWidth=1;fillColor=#d5e8d4;strokeColor=#82b366;" parent="WIyWlLk6GJQsqaUBKTNV-1" vertex="1">
          <mxGeometry x="1640" y="120" width="240" height="130" as="geometry">
            <mxRectangle x="340" y="380" width="170" height="26" as="alternateBounds" />
          </mxGeometry>
        </mxCell>
        <mxCell id="X7Wm0wWlR6N1wWY1FZSC-108" value="serviceKey (String)" style="text;align=left;verticalAlign=top;spacingLeft=4;spacingRight=4;overflow=hidden;rotatable=0;points=[[0,0.5],[1,0.5]];portConstraint=eastwest;" parent="X7Wm0wWlR6N1wWY1FZSC-107" vertex="1">
          <mxGeometry y="26" width="240" height="26" as="geometry" />
        </mxCell>
        <mxCell id="X7Wm0wWlR6N1wWY1FZSC-109" value="gpsLati (Double)" style="text;align=left;verticalAlign=top;spacingLeft=4;spacingRight=4;overflow=hidden;rotatable=0;points=[[0,0.5],[1,0.5]];portConstraint=eastwest;" parent="X7Wm0wWlR6N1wWY1FZSC-107" vertex="1">
          <mxGeometry y="52" width="240" height="26" as="geometry" />
        </mxCell>
        <mxCell id="X7Wm0wWlR6N1wWY1FZSC-110" value="gpsLong (Double)" style="text;align=left;verticalAlign=top;spacingLeft=4;spacingRight=4;overflow=hidden;rotatable=0;points=[[0,0.5],[1,0.5]];portConstraint=eastwest;fontStyle=0" parent="X7Wm0wWlR6N1wWY1FZSC-107" vertex="1">
          <mxGeometry y="78" width="240" height="26" as="geometry" />
        </mxCell>
        <mxCell id="X7Wm0wWlR6N1wWY1FZSC-111" value="" style="line;html=1;strokeWidth=1;align=left;verticalAlign=middle;spacingTop=-1;spacingLeft=3;spacingRight=3;rotatable=0;labelPosition=right;points=[];portConstraint=eastwest;fillColor=#d5e8d4;strokeColor=#82b366;" parent="X7Wm0wWlR6N1wWY1FZSC-107" vertex="1">
          <mxGeometry y="104" width="240" height="8" as="geometry" />
        </mxCell>
        <mxCell id="X7Wm0wWlR6N1wWY1FZSC-112" value="TAGO_AroundNodeInfoResponse" style="swimlane;fontStyle=2;align=center;verticalAlign=top;childLayout=stackLayout;horizontal=1;startSize=26;horizontalStack=0;resizeParent=1;resizeLast=0;collapsible=1;marginBottom=0;rounded=0;shadow=0;strokeWidth=1;fillColor=#d5e8d4;strokeColor=#82b366;" parent="WIyWlLk6GJQsqaUBKTNV-1" vertex="1">
          <mxGeometry x="1640" y="280" width="240" height="160" as="geometry">
            <mxRectangle x="340" y="380" width="170" height="26" as="alternateBounds" />
          </mxGeometry>
        </mxCell>
        <mxCell id="X7Wm0wWlR6N1wWY1FZSC-113" value="nomOfRows (Integer)" style="text;align=left;verticalAlign=top;spacingLeft=4;spacingRight=4;overflow=hidden;rotatable=0;points=[[0,0.5],[1,0.5]];portConstraint=eastwest;" parent="X7Wm0wWlR6N1wWY1FZSC-112" vertex="1">
          <mxGeometry y="26" width="240" height="26" as="geometry" />
        </mxCell>
        <mxCell id="X7Wm0wWlR6N1wWY1FZSC-114" value="pageNo (Integer)" style="text;align=left;verticalAlign=top;spacingLeft=4;spacingRight=4;overflow=hidden;rotatable=0;points=[[0,0.5],[1,0.5]];portConstraint=eastwest;" parent="X7Wm0wWlR6N1wWY1FZSC-112" vertex="1">
          <mxGeometry y="52" width="240" height="26" as="geometry" />
        </mxCell>
        <mxCell id="X7Wm0wWlR6N1wWY1FZSC-115" value="totalCount (String)" style="text;align=left;verticalAlign=top;spacingLeft=4;spacingRight=4;overflow=hidden;rotatable=0;points=[[0,0.5],[1,0.5]];portConstraint=eastwest;fontStyle=0" parent="X7Wm0wWlR6N1wWY1FZSC-112" vertex="1">
          <mxGeometry y="78" width="240" height="26" as="geometry" />
        </mxCell>
        <mxCell id="X7Wm0wWlR6N1wWY1FZSC-116" value="items (List&lt;TAGO_AroundNodeInfo&gt;)" style="text;align=left;verticalAlign=top;spacingLeft=4;spacingRight=4;overflow=hidden;rotatable=0;points=[[0,0.5],[1,0.5]];portConstraint=eastwest;fontStyle=0" parent="X7Wm0wWlR6N1wWY1FZSC-112" vertex="1">
          <mxGeometry y="104" width="240" height="26" as="geometry" />
        </mxCell>
        <mxCell id="X7Wm0wWlR6N1wWY1FZSC-117" value="" style="line;html=1;strokeWidth=1;align=left;verticalAlign=middle;spacingTop=-1;spacingLeft=3;spacingRight=3;rotatable=0;labelPosition=right;points=[];portConstraint=eastwest;fillColor=#d5e8d4;strokeColor=#82b366;" parent="X7Wm0wWlR6N1wWY1FZSC-112" vertex="1">
          <mxGeometry y="130" width="240" height="8" as="geometry" />
        </mxCell>
        <mxCell id="X7Wm0wWlR6N1wWY1FZSC-118" value="TAGO_AroundNodeInfo" style="swimlane;fontStyle=2;align=center;verticalAlign=top;childLayout=stackLayout;horizontal=1;startSize=26;horizontalStack=0;resizeParent=1;resizeLast=0;collapsible=1;marginBottom=0;rounded=0;shadow=0;strokeWidth=1;fillColor=#d5e8d4;strokeColor=#82b366;" parent="WIyWlLk6GJQsqaUBKTNV-1" vertex="1">
          <mxGeometry x="1640" y="480" width="240" height="180" as="geometry">
            <mxRectangle x="340" y="380" width="170" height="26" as="alternateBounds" />
          </mxGeometry>
        </mxCell>
        <mxCell id="X7Wm0wWlR6N1wWY1FZSC-119" value="gpslati (Double)" style="text;align=left;verticalAlign=top;spacingLeft=4;spacingRight=4;overflow=hidden;rotatable=0;points=[[0,0.5],[1,0.5]];portConstraint=eastwest;" parent="X7Wm0wWlR6N1wWY1FZSC-118" vertex="1">
          <mxGeometry y="26" width="240" height="26" as="geometry" />
        </mxCell>
        <mxCell id="X7Wm0wWlR6N1wWY1FZSC-121" value="gpslong (Double)" style="text;align=left;verticalAlign=top;spacingLeft=4;spacingRight=4;overflow=hidden;rotatable=0;points=[[0,0.5],[1,0.5]];portConstraint=eastwest;fontStyle=0" parent="X7Wm0wWlR6N1wWY1FZSC-118" vertex="1">
          <mxGeometry y="52" width="240" height="26" as="geometry" />
        </mxCell>
        <mxCell id="X7Wm0wWlR6N1wWY1FZSC-124" value="nodeid (String)" style="text;align=left;verticalAlign=top;spacingLeft=4;spacingRight=4;overflow=hidden;rotatable=0;points=[[0,0.5],[1,0.5]];portConstraint=eastwest;fontStyle=0" parent="X7Wm0wWlR6N1wWY1FZSC-118" vertex="1">
          <mxGeometry y="78" width="240" height="26" as="geometry" />
        </mxCell>
        <mxCell id="X7Wm0wWlR6N1wWY1FZSC-123" value="nodenm (String)" style="text;align=left;verticalAlign=top;spacingLeft=4;spacingRight=4;overflow=hidden;rotatable=0;points=[[0,0.5],[1,0.5]];portConstraint=eastwest;fontStyle=0" parent="X7Wm0wWlR6N1wWY1FZSC-118" vertex="1">
          <mxGeometry y="104" width="240" height="26" as="geometry" />
        </mxCell>
        <mxCell id="X7Wm0wWlR6N1wWY1FZSC-125" value="citycode (Integer)" style="text;align=left;verticalAlign=top;spacingLeft=4;spacingRight=4;overflow=hidden;rotatable=0;points=[[0,0.5],[1,0.5]];portConstraint=eastwest;fontStyle=0" parent="X7Wm0wWlR6N1wWY1FZSC-118" vertex="1">
          <mxGeometry y="130" width="240" height="26" as="geometry" />
        </mxCell>
        <mxCell id="X7Wm0wWlR6N1wWY1FZSC-127" value="" style="line;html=1;strokeWidth=1;align=left;verticalAlign=middle;spacingTop=-1;spacingLeft=3;spacingRight=3;rotatable=0;labelPosition=right;points=[];portConstraint=eastwest;fillColor=#d5e8d4;strokeColor=#82b366;" parent="X7Wm0wWlR6N1wWY1FZSC-118" vertex="1">
          <mxGeometry y="156" width="240" height="8" as="geometry" />
        </mxCell>
        <mxCell id="X7Wm0wWlR6N1wWY1FZSC-128" value="" style="endArrow=open;shadow=0;strokeWidth=1;rounded=0;endFill=1;exitX=0.5;exitY=1;exitDx=0;exitDy=0;" parent="WIyWlLk6GJQsqaUBKTNV-1" source="X7Wm0wWlR6N1wWY1FZSC-112" target="X7Wm0wWlR6N1wWY1FZSC-118" edge="1">
          <mxGeometry x="0.5" y="41" relative="1" as="geometry">
            <mxPoint x="1510" y="450" as="sourcePoint" />
            <mxPoint x="1510" y="490" as="targetPoint" />
            <mxPoint x="-40" y="32" as="offset" />
          </mxGeometry>
        </mxCell>
        <mxCell id="X7Wm0wWlR6N1wWY1FZSC-129" value="*" style="resizable=0;align=right;verticalAlign=bottom;labelBackgroundColor=none;fontSize=12;" parent="X7Wm0wWlR6N1wWY1FZSC-128" connectable="0" vertex="1">
          <mxGeometry x="1" relative="1" as="geometry">
            <mxPoint x="15" y="2" as="offset" />
          </mxGeometry>
        </mxCell>
        <mxCell id="X7Wm0wWlR6N1wWY1FZSC-130" value="contains" style="text;html=1;resizable=0;points=[];;align=center;verticalAlign=middle;labelBackgroundColor=none;rounded=0;shadow=0;strokeWidth=1;fontSize=12;" parent="X7Wm0wWlR6N1wWY1FZSC-128" vertex="1" connectable="0">
          <mxGeometry x="0.5" y="49" relative="1" as="geometry">
            <mxPoint x="-19" y="-20" as="offset" />
          </mxGeometry>
        </mxCell>
        <mxCell id="X7Wm0wWlR6N1wWY1FZSC-131" value="NAVER_PTRequest" style="swimlane;fontStyle=2;align=center;verticalAlign=top;childLayout=stackLayout;horizontal=1;startSize=26;horizontalStack=0;resizeParent=1;resizeLast=0;collapsible=1;marginBottom=0;rounded=0;shadow=0;strokeWidth=1;fillColor=#d5e8d4;strokeColor=#82b366;" parent="WIyWlLk6GJQsqaUBKTNV-1" vertex="1">
          <mxGeometry x="1900" y="120" width="240" height="80" as="geometry">
            <mxRectangle x="340" y="380" width="170" height="26" as="alternateBounds" />
          </mxGeometry>
        </mxCell>
        <mxCell id="X7Wm0wWlR6N1wWY1FZSC-132" value="   " style="text;align=left;verticalAlign=top;spacingLeft=4;spacingRight=4;overflow=hidden;rotatable=0;points=[[0,0.5],[1,0.5]];portConstraint=eastwest;" parent="X7Wm0wWlR6N1wWY1FZSC-131" vertex="1">
          <mxGeometry y="26" width="240" height="26" as="geometry" />
        </mxCell>
        <mxCell id="X7Wm0wWlR6N1wWY1FZSC-135" value="" style="line;html=1;strokeWidth=1;align=left;verticalAlign=middle;spacingTop=-1;spacingLeft=3;spacingRight=3;rotatable=0;labelPosition=right;points=[];portConstraint=eastwest;fillColor=#d5e8d4;strokeColor=#82b366;" parent="X7Wm0wWlR6N1wWY1FZSC-131" vertex="1">
          <mxGeometry y="52" width="240" height="8" as="geometry" />
        </mxCell>
        <mxCell id="X7Wm0wWlR6N1wWY1FZSC-136" value="NAVER_PTResponse" style="swimlane;fontStyle=2;align=center;verticalAlign=top;childLayout=stackLayout;horizontal=1;startSize=26;horizontalStack=0;resizeParent=1;resizeLast=0;collapsible=1;marginBottom=0;rounded=0;shadow=0;strokeWidth=1;fillColor=#d5e8d4;strokeColor=#82b366;" parent="WIyWlLk6GJQsqaUBKTNV-1" vertex="1">
          <mxGeometry x="1900" y="280" width="240" height="80" as="geometry">
            <mxRectangle x="340" y="380" width="170" height="26" as="alternateBounds" />
          </mxGeometry>
        </mxCell>
        <mxCell id="X7Wm0wWlR6N1wWY1FZSC-137" value="   " style="text;align=left;verticalAlign=top;spacingLeft=4;spacingRight=4;overflow=hidden;rotatable=0;points=[[0,0.5],[1,0.5]];portConstraint=eastwest;" parent="X7Wm0wWlR6N1wWY1FZSC-136" vertex="1">
          <mxGeometry y="26" width="240" height="26" as="geometry" />
        </mxCell>
        <mxCell id="X7Wm0wWlR6N1wWY1FZSC-138" value="" style="line;html=1;strokeWidth=1;align=left;verticalAlign=middle;spacingTop=-1;spacingLeft=3;spacingRight=3;rotatable=0;labelPosition=right;points=[];portConstraint=eastwest;fillColor=#d5e8d4;strokeColor=#82b366;" parent="X7Wm0wWlR6N1wWY1FZSC-136" vertex="1">
          <mxGeometry y="52" width="240" height="8" as="geometry" />
        </mxCell>
      </root>
    </mxGraphModel>
  </diagram>
</mxfile>
